<?xml version="1.0"?>
<svg version="1.1" xmlns="http://www.w3.org/2000/svg" width="90" height="90" style=""><path fill="#098deb" d="M48.84765625,44.3359375l0,0.0390625l0-0.0390625l0.0390625,0.09765625q0,0.13671875-0.302734375,0.2734375t-0.341796875,0.1953125q-0.05859375,0.15625-0.244140625,0.33203125t-0.322265625,0.1953125q-0.078125,0.0390625-0.3515625,0.0390625q-0.48828125,0-0.52734375,0.0390625q-0.0390625,0.09765625-0.09765625,0.17578125t-0.15625,0.146484375t-0.15625,0.1171875t-0.21484375,0.107421875t-0.1953125,0.078125t-0.21484375,0.078125t-0.1953125,0.05859375q-0.078125,0.01953125-0.244140625,0.05859375t-0.244140625,0.05859375q-0.01953125,0-0.048828125,0.078125t-0.05859375,0.166015625t-0.048828125,0.107421875q-0.0390625,0.078125-0.146484375,0.166015625t-0.126953125,0.166015625q-0.13671875,0.2734375-0.25390625,0.390625l0,0.078125q0,0.21484375-0.1953125,0.60546875q-0.0390625,0.1953125-0.234375,0.80078125q-0.21484375,0.703125-0.80078125,2.24609375q-0.1171875,0.3125-0.52734375,1.15234375q-0.01953125,0.078125-0.15625,0.29296875t-0.1953125,0.2734375q0,0.078125-0.1171875,0.4296875q0,0.05859375-0.25390625,0.68359375l0,0.0390625q0,0.3515625-0.1953125,0.64453125q-0.0390625,0.1171875-0.1171875,0.37109375t-0.1171875,0.37109375t-0.15625,0.302734375t-0.29296875,0.361328125q-0.1171875,0.1171875-0.29296875,0.46875t-0.17578125,0.56640625q0,0.078125,0.0390625,0.1171875l0,0.078125q0,0.1171875-0.1171875,0.37109375t-0.21484375,0.3515625q-0.078125,0.234375-0.1171875,0.3125l-0.078125,0.1171875q0,0.0390625,0.0390625,0.05859375l0.0390625,0.078125l0,0.078125q-0.01953125,0.1171875-0.1953125,0.224609375t-0.1953125,0.205078125q0,0.25390625-0.078125,0.41015625q-0.05859375,0.64453125-0.37109375,1.38671875q-0.01953125,0.01953125-0.13671875,0.361328125t-0.21484375,0.478515625q-0.21484375,0.13671875-0.29296875,0.37109375q-0.09765625,0.52734375-0.3125,0.68359375q-0.078125,0.09765625-0.13671875,0.322265625t-0.13671875,0.341796875q0,0.078125-0.05859375,0.224609375t-0.15625,0.33203125t-0.1171875,0.244140625q-0.0390625,0.09765625-0.13671875,0.322265625t-0.13671875,0.322265625q-0.05859375,0.13671875-0.13671875,0.625t-0.21484375,0.6640625q-0.09765625,0.13671875-0.17578125,0.46875q-0.3125,0.60546875-0.3125,0.64453125q0.15625,0.3125,0.15625,0.3515625q0,0.078125-0.1171875,0.13671875q-0.25390625,0.17578125-0.56640625,0.625q-0.13671875,0.15625-0.439453125,0.322265625t-0.517578125,0.166015625q-0.01953125,0-0.078125-0.01953125t-0.078125-0.01953125q-0.078125-0.0390625-0.1953125-0.0390625q-0.05859375,0-0.17578125,0.01953125t-0.15625,0.01953125q-0.078125,0-0.234375-0.078125q-0.13671875,0.0390625-0.439453125,0.05859375t-0.439453125,0.05859375q-0.0390625,0-0.13671875,0.01953125t-0.13671875,0.01953125q-0.25390625,0-0.37109375-0.1171875q-0.0390625,0.0390625-0.2734375,0.0390625q-0.33203125,0-0.41015625-0.0390625q-0.078125,0.0390625-0.390625,0.0390625l-0.1171875,0l-0.33203125,0l-0.15625,0q-0.01953125,0-0.087890625,0.01953125t-0.107421875,0.01953125q-0.17578125,0-0.95703125-0.15625q-0.80078125-0.234375-1.484375-2.48046875q-0.09765625-0.234375-0.498046875-0.99609375t-0.537109375-1.1328125q-0.29296875-0.48828125-0.29296875-0.72265625q-0.09765625-0.1953125-0.15625-0.1953125l-0.2734375,0q-0.234375-0.05859375-0.234375-0.234375q0-0.13671875,0.1953125-0.2734375q0.2734375-0.15625,0.2734375-0.29296875q0-0.0390625-0.15625-0.3515625q-0.1171875-0.05859375-0.2734375-0.52734375q-0.234375,0.1171875-0.29296875,0.1171875q-0.13671875,0-0.1953125-0.15625l0-0.0390625q0-0.09765625,0.146484375-0.234375t0.126953125-0.21484375q-0.078125-0.15625-0.1953125-0.625q0-0.01953125-0.1171875-0.3515625t-0.234375-0.48828125q-0.1953125-0.234375-0.33203125-0.517578125t-0.2734375-0.712890625t-0.1953125-0.56640625q-0.0390625,0.0390625-0.15625,0.0390625q-0.09765625,0-0.1953125-0.05859375t-0.09765625-0.1171875q0-0.09765625,0.1171875-0.15625q0.17578125-0.1171875,0.17578125-0.15625l-0.01953125-0.05859375q-0.01953125-0.05859375-0.01953125-0.13671875q-0.01953125-0.078125-0.15625-0.244140625t-0.13671875-0.244140625t0.078125-0.1171875q0-0.1171875-0.2734375-0.52734375q-0.0390625-0.05859375-0.185546875-0.244140625t-0.244140625-0.3515625t-0.09765625-0.244140625q-0.09765625-0.8203125-0.3125-1.15234375q-0.17578125,0.1171875-0.2734375,0.1171875q-0.15625,0-0.15625-0.234375t0.15625-0.44921875q-0.01953125-0.05859375-0.126953125-0.1953125t-0.126953125-0.234375q-0.0390625-0.05859375-0.05859375-0.1171875t-0.029296875-0.13671875t-0.029296875-0.1171875l-0.1171875,0q-0.2734375,0-0.2734375-0.15625l0-0.078125q0.01953125-0.1171875,0.13671875-0.21484375t0.13671875-0.21484375q-0.0390625-0.078125-0.078125-0.234375t-0.0390625-0.17578125q-0.0390625-0.078125-0.05859375-0.17578125t-0.05859375-0.13671875t-0.1171875-0.0390625l-0.1171875,0q-0.29296875,0.05859375-0.29296875-0.078125q0-0.078125,0.068359375-0.205078125t0.126953125-0.205078125t0.0390625-0.078125q-0.33203125-0.6640625-0.390625-0.80078125q-0.05859375-0.09765625-0.224609375-0.498046875t-0.302734375-0.458984375q-0.1953125-0.13671875-0.1953125-0.2734375q0-0.1953125,0.1953125-0.33203125q0-0.0390625-0.01953125-0.1171875t-0.01953125-0.1171875q-0.0390625-0.05859375-0.09765625-0.185546875t-0.09765625-0.185546875q-0.21484375-0.4296875-0.2734375-0.5078125q-0.09765625-0.1953125-0.1171875-0.1953125t-0.1171875,0.01953125t-0.17578125,0.01953125q-0.390625,0-0.390625-0.21484375q0-0.234375,0.3125-0.390625q-0.3515625-0.3125-1.03515625-0.83984375q-0.17578125,0.1171875-0.3125,0.1171875t-0.21484375-0.0390625t-0.1953125-0.0390625q-0.01953125,0-0.087890625,0.01953125t-0.185546875,0.01953125q-0.05859375,0-0.3125-0.01953125t-0.29296875-0.01953125q-0.078125-0.01953125-0.478515625-0.09765625t-0.556640625-0.21484375q-0.1953125-0.1953125-0.1953125-0.72265625q0-0.05859375,0.01953125-0.17578125t0.01953125-0.15625q-0.09765625-1.1328125-0.09765625-1.34765625q-0.0390625,0.0390625-0.1953125,0.0390625q-0.234375,0-0.234375-0.1171875q0-0.09765625,0.078125-0.17578125q0-0.01953125,0.107421875-0.17578125t0.1953125-0.302734375t0.048828125-0.146484375q0-0.8203125,0.37109375-0.9765625q0.234375-0.15625,0.4296875-0.15625q0.17578125,0,0.21484375,0.0390625q0.3515625-0.1171875,0.68359375-0.1171875q0.15625,0,0.1953125,0.0390625q0.3125-0.078125,0.46875-0.078125q0.29296875,0,0.68359375,0.078125q0.2734375,0.0390625,0.76171875,0.0390625l0.1953125,0q0.44921875,0,0.56640625,0.078125q0.37109375-0.15625,0.83984375-0.15625q0.09765625,0,0.29296875,0.01953125t0.2734375,0.01953125q0.15625,0.01953125,0.46875-0.029296875t0.44921875-0.048828125q0.25390625,0,0.4296875,0.1171875q0.234375-0.078125,0.64453125-0.078125q0.078125,0,0.244140625-0.01953125t0.244140625-0.01953125l0.1171875,0q0.0390625-0.0390625,0.2734375-0.0390625q0.8203125,0,1.07421875,0.1953125q0.078125,0.0390625,0.21484375,0.0390625q0.078125,0,0.224609375-0.01953125t0.205078125-0.01953125l0.1171875,0l0.29296875,0q0.234375,0,0.3515625,0.078125q0.390625-0.1953125,0.72265625-0.1953125l0.1171875,0l0.078125,0q0.09765625,0,0.283203125-0.0390625t0.283203125-0.0390625l0.078125,0q0.46875,0.1171875,0.52734375,0.1171875q0.078125-0.0390625,0.15625-0.0390625q0.1171875,0,0.3515625,0.078125l0.1953125,0q0.41015625,0,0.52734375,0.0390625q0.0390625,0,0.166015625-0.01953125t0.185546875-0.01953125q0.546875,0,0.76171875,0.15625q0.37109375,0.25390625,0.37109375,0.9765625q0,0.05859375-0.01953125,0.166015625t-0.01953125,0.146484375q0.0390625,0.234375,0.078125,0.703125t0.078125,0.703125l0.13671875-0.1171875q0.13671875-0.09765625,0.21484375-0.09765625q0.09765625,0,0.17578125,0.13671875q0.0390625,0.0390625,0.0390625,0.1171875q0,0.05859375-0.33203125,0.2734375q0.1171875,0.05859375,0.1171875,0.15625q0,0.21484375-0.5859375,0.80078125q-0.1171875,0.13671875-0.25390625,0.21484375t-0.234375,0.087890625t-0.29296875,0.01953125t-0.2734375,0.009765625q-0.15625,0.078125-0.234375,0.078125q-0.01953125,0-0.078125-0.01953125t-0.078125-0.01953125q-0.234375,0.1171875-0.2734375,0.1171875q-0.078125,0-0.185546875-0.078125t-0.185546875-0.078125q-0.078125-0.0390625-0.21484375,0.048828125t-0.302734375,0.234375t-0.244140625,0.185546875q-0.05859375,0.09765625-0.15625,0.166015625t-0.166015625,0.087890625t-0.234375,0.05859375t-0.205078125,0.05859375q0.29296875,0.48828125,0.29296875,0.625q0,0.17578125-0.078125,0.29296875q0.1953125,0.1953125,0.3125,0.76171875q0.0390625,0.078125,0.1953125,0.576171875t0.29296875,0.732421875q0.1953125,0.33203125,0.458984375,1.064453125t0.380859375,0.986328125q0.1171875-0.1171875,0.1953125-0.1171875q0.1171875,0,0.1171875,0.1953125q0,0.09765625-0.01953125,0.25390625t-0.01953125,0.17578125l0,0.0390625q0.0390625,0.078125,0.09765625,0.224609375t0.09765625,0.224609375q0.13671875,0.25390625,0.33203125,1.3671875q0.1953125-0.09765625,0.2734375-0.09765625q0.1953125,0,0.1953125,0.21484375q-0.01953125,0.078125-0.126953125,0.185546875t-0.107421875,0.166015625l0,0.0390625q0.1171875,0.1171875,0.1953125,0.33203125q0.29296875,0.546875,0.48828125,1.46484375q0.234375-0.234375,0.72265625-0.234375q0.2734375,0,0.2734375,0.234375l0,0.078125q-0.01953125,0.15625-0.3515625,0.4296875t-0.33203125,0.33203125l0,0.0390625q0.33203125,0.5859375,0.44921875,1.0546875q0.44921875,0.8984375,0.87890625,2.1875q0.6640625-1.2890625,0.95703125-2.109375q0.1171875-0.3515625,0.419921875-1.044921875t0.419921875-1.044921875q0.0390625-0.1171875,0.17578125-0.41015625t0.17578125-0.46875q0.09765625-0.21484375,0.1953125-0.56640625q-0.0390625-0.0390625-0.0390625-0.1171875q0-0.15625,0.17578125-0.234375q0.078125-0.05859375,0.146484375-0.15625t0.087890625-0.166015625t0.068359375-0.234375t0.048828125-0.205078125q0.1171875-0.5078125,0.3125-0.87890625q0.29296875-0.78125,0.44921875-0.99609375q0.01953125-0.05859375-0.048828125-0.185546875t-0.068359375-0.185546875q0-0.0390625,0.078125-0.1171875q0.01953125-0.0390625,0.146484375-0.1171875t0.166015625-0.1171875q0.1171875-0.078125,0.17578125-0.4296875t0.15625-0.44921875q0-0.13671875,0.107421875-0.439453125t0.126953125-0.400390625q0.390625-1.328125,0.64453125-1.640625q0.01953125-0.05859375,0.185546875-0.41015625t0.166015625-0.5859375l0-0.1171875q-0.234375,0.1171875-0.4296875,0.1171875q-0.17578125,0-0.17578125-0.1171875q0-0.09765625,0.0390625-0.13671875l0.09765625-0.15625l0.0390625,0.0390625q0-0.0390625-0.0390625-0.078125q0-0.15625,0.078125-0.234375l-0.1171875,0q-0.078125,0-0.263671875-0.0390625t-0.263671875-0.0390625t-0.21484375,0.05859375t-0.1953125,0.05859375q-0.01953125,0-0.05859375-0.01953125t-0.05859375-0.01953125q-0.078125-0.0390625-0.1953125-0.0390625l-0.390625,0l-0.17578125,0q-0.078125,0-0.302734375-0.05859375t-0.322265625-0.05859375q-0.01953125,0-0.078125,0.0390625t-0.09765625,0.0390625q-0.01953125,0-0.05859375-0.01953125t-0.05859375-0.01953125q-0.078125-0.0390625-0.078125-0.1171875l0-0.0390625l0-0.0390625l-0.15625,0.078125q-0.078125,0.0390625-0.15625,0.0390625q-0.1171875,0-0.1171875-0.1171875t0.05859375-0.3125t0.05859375-0.21484375q-0.0390625-0.15625-0.0390625-0.48828125l0-0.46875q-0.078125-0.78125-0.078125-1.2890625q0-0.390625,0.0390625-0.5859375q-0.078125,0.0390625-0.21484375,0.0390625q-0.2734375,0-0.2734375-0.13671875q0-0.09765625,0.1171875-0.15625q0.29296875-0.13671875,0.41015625-0.3515625q0.01953125-0.01953125,0.078125-0.05859375t0.078125-0.05859375q0.0390625-0.01953125,0.126953125-0.09765625t0.166015625-0.126953125t0.13671875-0.068359375l0.09765625,0q0.078125,0,0.205078125,0.05859375t0.185546875,0.05859375l0.0390625,0l0.0390625,0q0.0390625,0,0.107421875,0.029296875t0.087890625,0.029296875l0.0390625,0q0.05859375-0.01953125,0.166015625-0.068359375t0.166015625-0.068359375l0.15625,0q0.25390625,0,0.48828125,0.078125q0.1171875,0,0.41015625-0.05859375t0.4296875-0.05859375l0.078125,0q0.0390625,0,0.234375-0.01953125t0.234375-0.01953125q0.078125-0.078125,0.1953125-0.078125q0.0390625,0,0.107421875,0.01953125t0.107421875,0.01953125l0.078125,0l0.078125,0q0.1953125,0,0.4296875,0.078125l0.09765625,0q0.390625,0,0.5078125,0.1171875l0.15625,0l0.29296875,0q0.078125-0.0390625,0.1953125-0.0390625q0.234375,0,0.3515625-0.0390625q0.078125-0.0390625,0.17578125-0.0390625q0.1171875,0,0.15625,0.0390625q0.09765625-0.01953125,0.41015625-0.15625t0.5078125-0.1171875q0.17578125,0,0.3125,0.1953125q0.05859375,0,0.1953125-0.0390625t0.21484375-0.0390625q0.29296875,0,0.76171875,0.15625q0.078125-0.0390625,0.1953125-0.0390625q0.1953125,0,0.3125-0.0390625l0.1953125,0q0.48828125,0,0.72265625,0.1171875q0.078125-0.0390625,0.29296875-0.078125t0.234375-0.0390625q0.234375-0.078125,0.60546875-0.078125q0.0390625,0,0.107421875-0.01953125t0.087890625-0.01953125l0.0390625,0q0.09765625,0,0.44921875,0.1171875q0.5078125,0.0390625,0.5078125,0.87890625l0,0.41015625l0,0.1953125q0,0.01953125,0.1171875,0.1171875t0.1171875,0.1953125t-0.078125,0.13671875q0,0.0390625-0.087890625,0.126953125t-0.107421875,0.146484375l0,0.15625q0,0.41015625-0.078125,0.56640625q0.15625-0.078125,0.234375-0.078125q0.15625,0,0.15625,0.15625l0,0.078125q-0.01953125,0.05859375-0.146484375,0.13671875t-0.234375,0.13671875t-0.087890625,0.1171875q0.3515625-0.1171875,0.390625-0.1171875q0.13671875,0,0.21484375,0.078125z M43.28125,44.1796875l-0.3125,0.1953125q0,0.01953125,0.1171875-0.048828125t0.234375-0.146484375l0.1171875-0.078125q-0.0390625,0-0.15625,0.078125q-0.390625,0.2734375-1.2109375,0.791015625t-1.23046875,0.771484375q0.21484375-0.0390625,0.4296875-0.126953125t0.56640625-0.283203125t0.41015625-0.234375q0.64453125-0.390625,2.67578125-1.796875q-0.2734375,0.13671875-0.810546875,0.439453125t-0.830078125,0.439453125z M43.84765625,42.75390625q0.234375-0.15625,1.23046875-0.76171875q-0.234375-0.0390625-1.23046875,0.76171875z M41.7578125,43.22265625q1.4453125-0.78125,2.12890625-1.23046875q-0.09765625,0.01953125-0.185546875,0.01953125l-0.13671875,0t-0.1171875,0.029296875t-0.166015625,0.107421875q-0.2734375,0.17578125-0.771484375,0.537109375t-0.751953125,0.537109375z M39.7265625,44.86328125q0.01953125,0.05859375,0.25390625-0.09765625t0.33203125-0.25390625z M39.9609375,47.5q0,0.078125,0.078125,0.078125t0.244140625-0.068359375t0.361328125-0.15625t0.37109375-0.185546875t0.3125-0.17578125l0.15625-0.078125q1.19140625-0.80078125,3.3203125-2.48046875q1.9921875-1.4453125,2.55859375-1.73828125q0.15625-0.078125,0.17578125-0.1171875t0.01953125-0.1953125l0-0.078125l0-0.1953125q0-0.15625-0.078125-0.1953125q-0.1171875,0-0.205078125,0.048828125t-0.185546875,0.146484375t-0.13671875,0.1171875q-0.3125,0.234375-1.162109375,0.87890625t-1.2890625,0.966796875t-1.142578125,0.791015625t-1.328125,0.80078125q-0.625,0.3515625-1.07421875,0.44921875q-0.078125,0.0390625-0.2734375,0.0390625q-0.52734375,0-0.52734375-0.29296875q0-0.1171875,0.0390625-0.15625q-0.078125,0.0390625-0.078125,0.234375q0,0.1171875,0.01953125,0.361328125t0.01953125,0.361328125l0,0.1171875q-0.01953125,0.078125-0.078125,0.33203125t-0.1171875,0.390625z M39.08203125,41.9140625l0.0390625,0l-0.0390625,0q-0.01953125,0-0.166015625,0.1953125t-0.29296875,0.400390625t-0.185546875,0.244140625q-0.546875,0.6640625-1.26953125,1.30859375q0.48828125-0.33203125,1.03515625-0.673828125t1.259765625-0.76171875t1.064453125-0.634765625q-0.1171875-0.078125-0.29296875-0.078125q-0.078125,0-0.21484375,0.01953125t-0.21484375,0.01953125q-0.1171875,0-0.21484375-0.068359375t-0.1171875-0.068359375q-0.078125,0-0.1171875,0.0390625q-0.1171875,0.05859375-0.1953125,0.05859375l-0.078125,0z M37.67578125,41.953125l-0.0390625,0.0390625l0.0390625-0.0390625q-0.1171875,0.1171875-0.2734375,0.1171875q-0.05859375,0-0.1953125-0.0390625t-0.17578125-0.0390625q-0.1953125,0-0.234375,0.1953125q-0.1171875,0.46875-0.234375,0.87890625q0.390625-0.17578125,1.6796875-1.03515625q-0.25390625,0-0.56640625-0.078125z M36.4453125,42.0703125q0.0390625-0.0390625,0.0390625-0.1171875q-0.0390625,0.0390625-0.0390625,0.1171875z M36.5234375,44.140625l0-0.0390625l0,0.0390625q-0.01953125-0.0390625,0.322265625-0.361328125t0.771484375-0.72265625t0.46875-0.439453125q-1.11328125,0.6640625-1.328125,0.76171875q-0.234375,0.13671875-0.234375,0.25390625q0,0.0390625,0.01953125,0.126953125t0.01953125,0.146484375q0,0.15625-0.0390625,0.234375z M39.12109375,49.55078125q0,0.0390625,0.0390625,0.0390625t0.126953125-0.078125t0.205078125-0.17578125t0.15625-0.1171875q0.15625-0.1171875,0.41015625-0.322265625t0.458984375-0.37109375t0.400390625-0.302734375q2.36328125-1.796875,2.96875-2.24609375q0.390625-0.33203125,0.72265625-0.546875q0.078125-0.05859375,0.13671875-0.3125t0.25390625-0.29296875l0.078125,0q0.0390625,0,0.09765625,0.01953125t0.09765625,0.01953125t0.1171875-0.078125q0.234375-0.15625,0.654296875-0.478515625t0.634765625-0.478515625l0.29296875-0.1953125t0.37109375-0.29296875t0.13671875-0.2734375q-1.15234375,0.6640625-3.212890625,2.24609375t-3.154296875,2.2265625q-0.72265625,0.41015625-0.87890625,0.44921875q-0.0390625,0-0.087890625,0.01953125t-0.068359375,0.01953125q-0.078125,0-0.15625-0.01953125l-0.078125-0.01953125q-0.078125,0-0.234375,0.15625q-0.09765625,0.21484375-0.244140625,0.703125t-0.244140625,0.703125z M38.80859375,50.5859375q0.0390625-0.09765625,0.283203125-0.283203125t0.546875-0.37109375t0.361328125-0.224609375q-0.1171875,0.078125-0.41015625,0.244140625t-0.48828125,0.3125t-0.29296875,0.322265625z M37.67578125,53.06640625l0.0390625,0l-0.0390625,0q0-0.0390625,0.56640625-0.4296875t1.19140625-0.8203125t0.72265625-0.5078125q1.09375-0.78125,1.9140625-1.6015625q0.234375-0.17578125,0.517578125-0.5078125t0.205078125-0.52734375q0-0.0390625-0.0390625-0.0390625q-0.078125,0-0.322265625,0.13671875t-0.46875,0.29296875t-0.244140625,0.15625q-0.2734375,0.21484375-0.751953125,0.625t-0.87890625,0.732421875t-0.771484375,0.576171875q-0.56640625,0.29296875-0.72265625,0.3125q-0.13671875,0-0.185546875,0.1953125t-0.126953125,0.25390625q-0.1953125,0.8984375-0.60546875,1.15234375z M41.07421875,53.49609375q-0.01953125,0.0390625-0.25390625,0.21484375t-0.29296875,0.234375q-0.13671875,0.09765625-0.400390625,0.302734375t-0.400390625,0.302734375q-1.1328125,0.87890625-1.3671875,1.03515625q-1.89453125,1.50390625-2.28515625,1.875q0.91796875-0.44921875,3.4375-2.0703125q0.09765625-0.078125,0.419921875-0.25390625t0.556640625-0.3515625t0.3125-0.3515625q0.05859375-0.13671875,0.13671875-0.46875t0.13671875-0.46875z M38.84765625,58.984375l0-0.078125q-1.328125,0.99609375-2.51953125,1.71875q-0.703125,0.3515625-1.09375,0.3515625q-0.2734375,0-0.2734375-0.1953125l0-0.078125q-0.1171875,0.1171875-0.234375,0.1171875q-0.078125,0-0.1171875-0.0390625q-0.01953125,0.0390625-0.0390625,0.17578125t-0.05859375,0.1953125q0,0.1953125-0.15625,0.4296875q-0.17578125,0.234375-0.4296875,0.234375q-0.3125,0-0.37109375-0.2734375q-0.72265625,0.5859375-2.158203125,1.748046875t-2.158203125,1.728515625q0.3125-0.0390625,0.654296875-0.146484375t0.732421875-0.3125t0.615234375-0.33203125t0.68359375-0.419921875t0.556640625-0.3515625q2.1484375-1.26953125,3.80859375-2.40234375q0.0390625-0.0390625,1.875-1.30859375q0.0390625-0.0390625,0.21484375-0.15625t0.234375-0.17578125t0.13671875-0.17578125t0.09765625-0.25390625z M39.04296875,58.06640625q-0.0390625,0.05859375-0.224609375,0.166015625t-0.4296875,0.234375t-0.302734375,0.166015625q-0.17578125,0.1171875-0.56640625,0.3515625t-0.56640625,0.3515625q0.0390625-0.01953125,0.52734375-0.302734375t0.72265625-0.439453125q0.78125-0.390625,0.83984375-0.52734375z M37.16796875,58.75q1.89453125-1.171875,2.1875-1.328125q0.41015625-0.15625,0.41015625-1.07421875q-0.546875,0.5078125-1.58203125,1.4453125t-1.23046875,1.11328125q0.0390625-0.0390625,0.1171875-0.087890625t0.09765625-0.068359375z M40.2734375,55.3515625l-0.15625,0.1171875q0.0390625-0.0390625,0.15625-0.1171875q-0.01953125,0.078125-0.21484375,0.205078125t-0.439453125,0.25390625t-0.302734375,0.166015625q-0.5078125,0.29296875-0.83984375,0.52734375q0.91796875-0.5078125,1.796875-1.15234375z M36.3671875,56.58203125q-0.01953125,0.01953125-0.0390625,0.078125t-0.0390625,0.078125q1.07421875-0.87890625,2.59765625-1.9921875q0.234375-0.17578125,0.68359375-0.537109375t0.6640625-0.537109375q0.078125-0.078125,0.37109375-0.283203125t0.478515625-0.380859375t0.244140625-0.3515625q-1.953125,1.19140625-3.65234375,2.12890625q-0.0390625,0.01953125-0.21484375,0.126953125t-0.29296875,0.146484375q-0.078125,0.0390625-0.29296875,0.33203125q-0.1953125,0.46875-0.2734375,0.5859375q0,0.37109375-0.234375,0.60546875z M37.28515625,54.58984375l0.4296875-0.25390625q0-0.01953125-0.107421875,0.0390625t-0.21484375,0.126953125t-0.107421875,0.087890625q1.54296875-0.83984375,2.98828125-1.7578125q0.13671875-0.078125,0.400390625-0.224609375t0.419921875-0.234375t0.361328125-0.244140625t0.341796875-0.3125q0-0.13671875,0.126953125-0.361328125t0.146484375-0.302734375q-0.46875,0.3515625-1.396484375,0.87890625t-1.162109375,0.6640625q-0.078125,0.05859375-0.576171875,0.361328125t-0.732421875,0.46875t-0.537109375,0.478515625t-0.380859375,0.5859375z M42.55859375,49.86328125q0-0.01953125,0.01953125-0.05859375t0.01953125-0.05859375q-0.5859375,0.625-1.796875,1.6015625q0.1171875-0.1171875,0.498046875-0.341796875t0.615234375-0.224609375q0.21484375,0,0.21484375,0.15625q0.25390625-0.29296875,0.4296875-1.07421875z M34.84375,60.17578125q0,0.09765625-0.0390625,0.13671875q0.703125-0.60546875,2.041015625-1.826171875t1.474609375-1.337890625q-0.1171875,0.078125-0.595703125,0.380859375t-0.791015625,0.478515625t-0.64453125,0.29296875q-0.15625,0.078125-0.37109375,0.078125q-0.15625,0-0.234375-0.078125q-0.0390625,0.09765625-0.1953125,0.56640625t-0.302734375,0.76171875t-0.341796875,0.546875z M32.71484375,59.66796875q0.01953125,0.01953125-0.859375,0.87890625t-1.0546875,0.99609375q-1.03515625,1.09375-2.03125,2.08984375q3.7890625-2.48046875,4.23828125-2.734375q0.15625-0.09765625,0.15625-0.15625t-0.068359375-0.185546875t-0.087890625-0.205078125q-0.05859375-0.09765625-0.146484375-0.341796875t-0.146484375-0.341796875z M32.16796875,58.8671875l0,0.0390625l0-0.0390625q0.078125,0.15625,0.078125,0.234375q0,0.33203125-0.83984375,1.03515625l0.2734375-0.21484375q0.25390625-0.234375,0.478515625-0.390625t0.361328125-0.15625q0.05859375,0,0.1171875,0.05859375q-0.078125-0.15625-0.17578125-0.478515625t-0.17578125-0.458984375q-0.0390625,0.0390625-0.146484375,0.126953125t-0.146484375,0.126953125q0.1171875,0.05859375,0.17578125,0.1171875z M26.9921875,60.5078125l0.29296875-0.1953125l-0.29296875,0.1953125q0.46875-0.3515625,1.396484375-1.064453125t1.376953125-1.064453125q0.234375-0.15625,0.6640625-0.498046875t0.64453125-0.498046875q0.0390625-0.0390625,0.1953125-0.13671875t0.224609375-0.166015625t0.068359375-0.166015625t-0.0390625-0.17578125q-0.1171875,0.09765625-3.046875,2.20703125q-0.0390625,0.01953125-0.29296875,0.205078125t-0.3515625,0.25390625t-0.302734375,0.1953125t-0.380859375,0.1953125t-0.3515625,0.107421875q0.05859375,0.09765625,0.1171875,0.322265625t0.078125,0.283203125z M31.796875,57.34375l-0.234375,0.15625l0.234375-0.15625q-1.26953125,0.9375-1.796875,1.3671875q1.40625-0.91796875,1.9140625-1.0546875q-0.078125-0.234375-0.1171875-0.3125z M32.32421875,56.38671875l0.0390625-0.0390625l-0.0390625,0.0390625q0.1171875-0.078125,0.3125-0.2734375q-0.3515625,0.1171875-0.3515625,0.1953125q0,0.01953125,0.01953125,0.0390625t0.01953125,0.0390625z M29.51171875,57.6953125l0.21484375-0.15625q0.01953125,0-0.078125,0.078125t-0.205078125,0.166015625t-0.126953125,0.087890625q0.078125-0.05859375,0.1953125-0.17578125q0.21484375-0.15625,0.80078125-0.5859375t0.91796875-0.64453125q0.13671875-0.13671875,0.13671875-0.234375q0-0.1171875-0.078125-0.3515625l-0.09765625-0.29296875q-0.05859375-0.15625-0.17578125-0.478515625t-0.17578125-0.478515625q-0.625,0.56640625-1.806640625,1.552734375t-1.435546875,1.201171875q0.2734375-0.17578125,0.869140625-0.576171875t1.064453125-0.68359375t0.91796875-0.458984375l0.078125,0q0.390625,0,0.390625,0.15625q0,0.0390625-0.1171875,0.15625q-0.01953125,0.05859375-0.087890625,0.1171875t-0.15625,0.126953125t-0.107421875,0.087890625q-0.64453125,0.60546875-3.1640625,2.94921875q0.8203125-0.46875,2.2265625-1.5625z M25.1953125,56.015625l0.25390625-0.1953125q-0.25390625,0.15625-0.25390625,0.1953125q2.67578125-2.0703125,3.046875-2.3828125q1.7578125-1.328125,1.6796875-1.5234375q-0.078125,0.05859375-0.78125,0.56640625l-0.87890625,0.634765625t-0.771484375,0.52734375t-0.927734375,0.595703125t-0.8203125,0.458984375t-0.9375,0.458984375q0.3515625,0.5859375,0.390625,0.6640625z M30.1171875,52.5q0.01953125,0.0390625-0.283203125,0.3125t-0.625,0.546875t-0.400390625,0.3125q0.99609375-0.56640625,1.34765625-0.52734375q0.078125,0,0.078125-0.1171875q0-0.29296875-0.1171875-0.52734375z M29.23828125,54.140625l-0.078125,0.0390625q0.0390625-0.0390625,0.078125-0.0390625q-0.09765625,0.05859375-0.302734375,0.166015625t-0.302734375,0.166015625q0.15625-0.05859375,0.60546875-0.33203125z M29.39453125,54.47265625l-0.078125,0.078125l0.234375-0.17578125q-0.0390625,0.05859375-0.15625,0.09765625q-0.25390625,0.21484375-1.03515625,0.7421875q0.37109375-0.21484375,1.640625-0.95703125q0.4296875-0.21484375,0.52734375-0.2734375q-0.078125-0.15625-0.078125-0.234375q-0.09765625,0.05859375-0.478515625,0.33203125t-0.576171875,0.390625z M27.48046875,53.30078125l0.1953125-0.1171875l-0.72265625,0.48828125q0.13671875-0.09765625,0.52734375-0.37109375q1.0546875-0.68359375,1.796875-1.23046875q0.05859375-0.0390625,0.166015625-0.09765625t0.15625-0.09765625t0.087890625-0.087890625t0.0390625-0.126953125t-0.0390625-0.15625q-0.078125-0.13671875-0.205078125-0.419921875t-0.205078125-0.419921875q-2.3828125,1.73828125-3.4765625,2.67578125q-0.5859375,0.46875-1.11328125,0.99609375q-0.17578125,0.17578125-0.17578125,0.29296875q0,0.0390625,0.01953125,0.087890625t0.0390625,0.126953125t0.0390625,0.13671875q0.95703125-0.41015625,2.87109375-1.6796875z M29.04296875,50.01953125q-0.21484375-0.3125-0.37109375-0.87890625q-1.4453125,1.11328125-2.94921875,2.36328125q-0.0390625,0.0390625-0.29296875,0.234375t-0.498046875,0.400390625t-0.498046875,0.4296875t-0.400390625,0.41015625t-0.107421875,0.283203125q0.48828125-0.29296875,1.4453125-0.83984375t1.42578125-0.83984375q0.25390625-0.13671875,0.78125-0.439453125t0.78125-0.439453125q0.29296875-0.1953125,0.76171875-0.4296875q-0.078125-0.15625-0.078125-0.25390625z M27.96875,47.578125q0.0390625,0.0390625,0.0390625,0.17578125q0,0.25390625-0.48828125,0.7421875q-0.8203125,0.87890625-3.046875,2.6953125q0.15625-0.1171875,0.830078125-0.654296875t0.986328125-0.76171875t0.869140625-0.56640625t1.044921875-0.537109375q0.234375-0.1171875,0.234375-0.25390625q0-0.05859375-0.087890625-0.224609375t-0.107421875-0.283203125q-0.3125-0.625-0.3125-1.0546875q-0.25390625,0.1953125-0.751953125,0.576171875t-0.732421875,0.556640625q0.9375-0.56640625,1.19140625-0.56640625q0.234375,0,0.33203125,0.15625z M22.0703125,48.41796875l0.05859375,0l-0.05859375,0q0.2734375-0.078125,0.56640625-0.283203125t0.625-0.478515625t0.5078125-0.390625q-0.8203125,0.41015625-1.2109375,0.64453125q-0.05859375,0.0390625-0.166015625,0.078125t-0.17578125,0.068359375t-0.126953125,0.09765625t-0.05859375,0.146484375t0.0390625,0.1171875z M21.15234375,46.30859375q0.01953125,0.01953125,0.33203125-0.15625t0.3515625-0.21484375q-0.1171875,0.05859375-0.341796875,0.185546875t-0.341796875,0.185546875z M25.234375,44.43359375l-0.546875,0.390625l0.625-0.48828125q0,0.05859375-0.078125,0.09765625q-0.56640625,0.390625-1.689453125,1.15234375t-1.669921875,1.15234375q-0.3125,0.1953125-0.3125,0.25390625l0.078125,0.234375l0.1171875,0.234375q0.41015625-0.390625,0.966796875-0.80078125t0.95703125-0.6640625t1.103515625-0.693359375l1.015625-0.634765625q2.94921875-1.8359375,4.19921875-2.75390625l-0.2734375,0q-0.33203125,0-0.52734375,0.1171875q-0.60546875,0.2734375-1.03515625,0.5078125q-0.7421875,0.4296875-2.9296875,1.89453125z M31.484375,42.98828125l0,0.0390625l0-0.0390625q-0.01953125-0.01953125-2.01171875,1.30859375q0.15625-0.01953125,0.25390625,0.05859375l0.078125,0.078125q0.09765625,0,0.1953125-0.09765625q0.15625-0.15625,0.3125-0.15625q0.13671875,0,0.17578125,0.0390625l0.1171875,0q0.09765625,0,0.224609375-0.048828125t0.283203125-0.13671875t0.25390625-0.126953125q0.1953125-0.09765625,0.1953125-0.2734375q0-0.078125-0.0390625-0.2734375t-0.0390625-0.29296875l0-0.078125z M31.40625,42.3046875l-0.29296875,0.1171875l0.29296875-0.1171875q-0.87890625,0.3515625-2.48046875,1.328125q-2.44140625,1.38671875-5.15625,3.18359375q3.59375-1.9140625,5.3125-2.94921875q0.29296875-0.17578125,0.888671875-0.537109375t0.908203125-0.537109375q0.05859375-0.0390625,0.224609375-0.107421875t0.234375-0.146484375t0.068359375-0.234375z M26.2890625,46.0546875q-0.56640625,0.3515625-1.25,0.80078125q0.68359375-0.44921875,1.25-0.80078125z M24.31640625,48.18359375l-0.3515625,0.234375q0.5078125-0.390625,0.546875-0.390625q-0.078125,0.0390625-0.1953125,0.15625q-0.01953125,0.01953125-0.21484375,0.146484375t-0.322265625,0.224609375t-0.29296875,0.234375t-0.25390625,0.263671875t-0.107421875,0.244140625l0.0390625,0q0.21484375,0,0.5078125-0.1953125q0.17578125-0.078125,1.484375-1.03515625q0.25390625-0.1953125,0.751953125-0.60546875t0.771484375-0.60546875q0.05859375-0.0390625,0.21484375-0.13671875t0.244140625-0.166015625t0.21484375-0.15625t0.205078125-0.185546875t0.1171875-0.1953125q-0.09765625,0.078125-1.40625,0.888671875t-1.953125,1.279296875z M29.08203125,44.62890625l-0.078125,0.0390625q0.0390625,0,0.078125-0.0390625l0.078125-0.078125q-0.09765625,0.05859375-0.44921875,0.3125q0.05859375-0.0390625,0.185546875-0.1171875t0.185546875-0.1171875z M32.44140625,44.78515625l0.0390625,0l-0.0390625,0z M30.95703125,41.9140625l0.0390625,0.0390625q0-0.0390625-0.0390625-0.0390625q-0.05859375,0.01953125-0.234375,0.0390625t-0.2734375,0.1171875q-0.078125,0.05859375-0.263671875,0.17578125t-0.263671875,0.17578125q-0.6640625,0.48828125-1.6015625,1.07421875q1.73828125-1.07421875,2.79296875-1.50390625z M25.83984375,41.9140625q-0.078125-0.01953125-0.21484375,0.087890625t-0.3125,0.3125t-0.1953125,0.224609375q0.13671875-0.09765625,0.439453125-0.29296875t0.439453125-0.29296875q-0.0390625-0.0390625-0.1171875-0.0390625l-0.0390625,0z M20.390625,45.46875l0.25390625-0.15625l-0.25390625,0.15625q0.1171875-0.078125,0.91796875-0.5859375t1.064453125-0.68359375t0.859375-0.595703125t1.005859375-0.771484375t0.80078125-0.72265625q-2.36328125,1.30859375-5.1171875,2.94921875q0.078125,0.0390625,0.244140625,0.205078125t0.224609375,0.205078125z M24.12109375,41.953125l0.0390625,0l-0.0390625,0q-0.078125,0-0.21484375,0.087890625t-0.29296875,0.205078125t-0.21484375,0.13671875q-0.15625,0.09765625-0.478515625,0.302734375t-0.478515625,0.302734375q-0.13671875,0.09765625-0.869140625,0.546875t-1.083984375,0.72265625q2.05078125-1.2109375,4.16015625-2.40234375q-0.078125,0-0.263671875,0.048828125t-0.263671875,0.048828125z M17.20703125,43.9453125q0.1171875-0.1953125,0.56640625-0.888671875t0.703125-1.064453125q-0.078125,0.0390625-0.419921875,0.21484375t-0.615234375,0.3515625t-0.3125,0.2734375q0.078125,0.1953125,0.078125,0.6640625l0,0.44921875z M19.51171875,41.9921875l0.0390625,0l-0.0390625,0q-0.09765625,0-0.234375-0.068359375t-0.15625-0.068359375q-0.13671875,0-0.1953125,0.17578125q-0.21484375,0.2734375-0.52734375,0.80078125q-0.52734375,0.76171875-0.87890625,1.38671875q0.6640625-0.44921875,1.97265625-1.19140625t1.875-1.11328125q-0.46875,0.1171875-0.68359375,0.1171875q-0.1953125,0-0.234375-0.0390625q-0.078125-0.0390625-0.25390625-0.0390625q-0.078125,0-0.25390625,0.01953125t-0.25390625,0.01953125l-0.17578125,0z M20.95703125,45.9375q0.17578125,0.17578125,3.3984375-1.8359375q2.48046875-1.484375,3.203125-2.0703125q-0.234375-0.078125-0.390625-0.078125q-0.4296875,0-0.76171875,0.1953125q-0.37109375,0.234375-1.09375,0.712890625t-1.07421875,0.732421875q-2.98828125,2.05078125-3.359375,2.265625z M22.79296875,50.05859375q0,0.078125,0.0390625,0.1171875q0.33203125-0.2734375,0.87890625-0.625q-0.234375,0.1171875-0.46875,0.1171875q-0.48828125,0-0.48828125-0.33203125q0-0.1953125,0.21484375-0.46875q-0.0390625,0.01953125-0.205078125,0.09765625t-0.29296875,0.1171875t-0.224609375,0.01953125q0.078125,0.09765625,0.17578125,0.2734375t0.205078125,0.390625t0.166015625,0.29296875z M23.359375,51.46484375q3.75-2.87109375,4.19921875-3.6328125q-0.390625,0.1171875-0.849609375,0.361328125t-0.76171875,0.458984375t-0.810546875,0.5859375t-0.703125,0.5078125q-0.0390625,0.01953125-0.44921875,0.263671875t-0.6640625,0.458984375t-0.234375,0.3515625q0.2734375,0.2734375,0.2734375,0.64453125z M25.48828125,50.8984375l-0.25390625,0.21484375l0.44921875-0.33203125q-0.01953125,0-0.1953125,0.1171875q-0.21484375,0.13671875-0.791015625,0.576171875t-0.888671875,0.634765625q-0.25390625,0.1953125-0.25390625,0.3515625t0.1171875,0.33203125q1.71875-1.62109375,4.375-3.61328125q-0.6640625,0.3515625-2.55859375,1.71875z M24.31640625,54.0625l0-0.0390625l0,0.0390625q0,0.0390625,0.0390625,0.0390625t0.09765625-0.05859375t0.146484375-0.13671875t0.126953125-0.1171875q0.390625-0.390625,0.46875-0.44921875q0.56640625-0.52734375,1.5234375-1.23046875q-0.3515625,0.1953125-1.03515625,0.595703125t-1.03515625,0.595703125q-0.0390625,0.01953125-0.13671875,0.05859375t-0.166015625,0.078125t-0.126953125,0.087890625t-0.05859375,0.107421875l0,0.0390625q0.01953125,0.05859375,0.078125,0.1953125t0.078125,0.1953125z M25.48828125,56.81640625q0-0.05859375,1.46484375-1.03515625q-0.25390625,0.1171875-0.72265625,0.341796875t-0.703125,0.341796875q-0.13671875,0.05859375-0.13671875,0.1171875q0,0.0390625,0.0390625,0.107421875t0.05859375,0.126953125z M25.64453125,57.3828125q0.09765625,0.15625,0.3125,0.87890625q2.421875-1.953125,4.43359375-3.75q-1.0546875,0.5859375-2.421875,1.38671875q-0.0390625,0.01953125-0.703125,0.380859375t-1.15234375,0.673828125t-0.46875,0.4296875z M26.23046875,58.8671875q0.05859375,0.078125,0.166015625,0.25390625t0.166015625,0.25390625q0.48828125-0.44921875,1.513671875-1.38671875t1.533203125-1.40625q-0.21484375,0.13671875-1.484375,0.9765625t-1.97265625,1.19140625q0.078125,0.078125,0.078125,0.1171875z M27.48046875,60.859375l0.3515625-0.234375q-0.078125,0.078125-0.3515625,0.234375q-0.234375,0.13671875-0.234375,0.25390625l0.078125,0.234375q1.6015625-1.19140625,2.87109375-1.9140625q0.21484375-0.15625,0.634765625-0.390625t0.732421875-0.439453125t0.56640625-0.458984375q-0.078125-0.078125-0.17578125-0.078125q-0.17578125,0-0.546875,0.1953125t-0.76171875,0.44921875t-0.44921875,0.2734375q-0.7421875,0.48828125-2.71484375,1.875z M27.63671875,62.109375q0-0.01953125,1.025390625-0.576171875t2.060546875-1.2890625t1.07421875-1.142578125q-0.15625-0.01953125-0.33203125,0.068359375t-0.4296875,0.2734375t-0.3125,0.224609375q-0.83984375,0.5859375-1.3671875,0.87890625q-1.0546875,0.72265625-1.71875,1.11328125q-0.1171875,0.05859375-0.1171875,0.15625q0,0.0390625,0.048828125,0.146484375t0.068359375,0.146484375z M30.0390625,61.54296875l-0.390625,0.2734375l0.4296875-0.3125q0,0.0390625-0.0390625,0.0390625q-1.2109375,0.8203125-2.20703125,1.328125q0.0390625,0.09765625,0.126953125,0.390625t0.166015625,0.44921875q1.328125-1.328125,2.63671875-2.6953125q-0.2734375,0.234375-0.72265625,0.52734375z M28.6328125,64.70703125q0.09765625,0.1953125,0.13671875,0.234375q0.4296875-0.3515625,1.298828125-1.044921875t1.298828125-1.064453125q0.0390625-0.01953125,0.283203125-0.21484375t0.52734375-0.41015625t0.56640625-0.44921875t0.458984375-0.390625t0.15625-0.17578125q-0.64453125,0.3515625-3.515625,2.1484375q-1.34765625,0.859375-1.4453125,0.91796875q0.0390625,0.078125,0.1171875,0.224609375t0.1171875,0.224609375z M29.00390625,65.4296875q0.13671875,0.2734375,0.4296875,1.11328125q4.00390625-3.06640625,4.8046875-3.671875q-0.13671875,0.078125-0.78125,0.48828125t-0.8984375,0.556640625t-0.771484375,0.439453125t-0.9375,0.48828125t-0.849609375,0.37109375q-0.5078125,0.25390625-0.87890625,0.25390625q-0.1171875,0-0.1171875-0.0390625z M36.6015625,64.43359375l0-0.05859375q-0.15625,0-0.44921875,0.29296875q-0.1953125,0.1171875-0.6640625,0.4296875q-0.2734375,0.15625-0.830078125,0.5078125t-0.849609375,0.5078125q-0.25390625,0.17578125-0.791015625,0.517578125t-0.95703125,0.625t-0.771484375,0.576171875q0.3125-0.01953125,0.693359375-0.244140625t0.80078125-0.556640625t0.615234375-0.44921875q0.4296875-0.29296875,1.26953125-0.76171875t0.9765625-0.546875q0.3515625-0.234375,0.76171875-0.41015625q0.078125-0.05859375,0.107421875-0.1171875t0.048828125-0.15625t0.0390625-0.15625z M37.44140625,62.3046875l-0.078125,0.3125l0,0q0-0.078125,0.078125-0.3125q0-0.0390625-0.078125-0.0390625q-0.25390625,0-0.56640625,0.15625q-0.234375,0.09765625-2.109375,1.171875q-1.50390625,0.8984375-3.92578125,2.55859375q-0.05859375,0.01953125-0.341796875,0.1953125t-0.556640625,0.37109375t-0.25390625,0.234375q0.01953125,0.078125,0.1953125,0.4296875q0.5859375-0.46875,1.279296875-0.87890625t1.650390625-0.91796875t1.34765625-0.72265625q2.1875-1.40625,2.24609375-1.4453125q1.015625-0.6640625,1.11328125-1.11328125z M30.3125,67.79296875q0.078125,0,0.15625,0.009765625t0.1171875,0.01953125t0.05859375,0.009765625q0.05859375,0,0.2734375-0.21484375q0.390625-0.3125,0.68359375-0.5078125q0.87890625-0.64453125,2.63671875-1.71875q-0.83984375,0.46875-2.40234375,1.396484375t-1.7578125,1.044921875l-0.0390625,0l0.3515625-0.0390625l-0.078125,0z M35.078125,67.79296875l0.0390625,0l-0.0390625,0q0.15625-0.09765625,0.1953125-0.09765625l0.0390625,0l0.0390625-0.1171875q0.0390625-0.078125,0.107421875-0.234375t0.107421875-0.234375q0.1171875-0.3125,0.380859375-0.859375t0.341796875-0.703125q-0.33203125,0.09765625-0.64453125,0.2734375t-0.76171875,0.48828125t-0.56640625,0.390625q-0.41015625,0.234375-1.796875,1.1328125q0.0390625,0,0.09765625-0.01953125t0.09765625-0.01953125q0.05859375,0,0.205078125,0.01953125t0.205078125,0.01953125q0.1171875,0,0.1953125-0.0390625l0.1171875,0q0.21484375,0,0.33203125,0.1171875q0.17578125-0.17578125,0.3125-0.21484375q0.078125-0.0390625,0.2734375-0.0390625q0.0390625,0,0.72265625,0.13671875z M36.484375,67.79296875l0,0.0390625l0-0.0390625z M36.484375,67.83203125l0.0390625,0l-0.0390625,0z M36.5234375,67.83203125l0,0.0390625l0-0.0390625z M36.6796875,67.87109375l-0.078125,0l0.078125,0z M38.515625,60.05859375l0,0.0390625l0-0.0390625q0,0.01953125-0.13671875,0.1171875t-0.302734375,0.21484375t-0.205078125,0.15625q-0.2734375,0.1953125-0.810546875,0.615234375t-0.830078125,0.615234375q-0.390625,0.33203125-1.19140625,0.95703125t-1.19140625,0.9375q0.078125-0.05859375,0.7421875-0.498046875t0.947265625-0.60546875t0.810546875-0.400390625t0.9375-0.3125l0.1171875,0l0.1171875,0q0.1171875,0,0.1953125-0.1171875q0.41015625-0.56640625,0.80078125-1.6796875z M43.6328125,46.66015625l0.078125-0.078125q-0.390625,0.29296875-1.337890625,1.025390625t-1.455078125,1.103515625q0.13671875-0.078125,0.537109375-0.322265625t0.703125-0.400390625t0.595703125-0.234375q0.1171875-0.05859375,0.25390625-0.05859375q0.1953125,0.05859375,0.1953125,0.13671875q0,0.21484375-0.41015625,0.4296875q0.17578125,0,0.33203125,0.15625q0.01953125-0.09765625,0.078125-0.3125t0.078125-0.3125q0-0.15625,0.107421875-0.37109375t0.126953125-0.3125l0-0.078125q0-0.01953125,0.1171875-0.37109375z M45.80078125,45.05859375q0.1171875,0.01953125,0.33203125-0.13671875t0.2734375-0.17578125l0.1171875,0l0.078125,0q0.0390625,0,0.15625-0.078125q0.72265625-0.5078125,0.68359375-0.91796875q-1.71875,1.15234375-1.640625,1.30859375z"/><path fill="#fc032c" d="M83.510546875,56.54296875q0.0390625,0.0390625,0.0390625,0.1171875q0,0.09765625-0.390625,0.48828125q-0.1953125,0.15625-0.1953125,0.234375q0,0.0390625,0.0390625,0.13671875t0.0390625,0.17578125q0.0390625,0.1171875,0.0390625,0.44921875l0,0.56640625l0,0.2734375q0.01953125,0,0.05859375-0.01953125t0.05859375-0.01953125q0.15625,0,0.15625,0.15625l0,0.078125q0,0.0390625-0.05859375,0.09765625t-0.1171875,0.09765625l-0.05859375,0.05859375q0.078125,0.390625,0.078125,0.703125l0,0.25390625q0,0.44921875-0.078125,0.76171875q-0.01953125,0.1171875-0.0390625,0.556640625t-0.1171875,0.634765625q-0.0390625,0.09765625-0.205078125,0.263671875t-0.205078125,0.224609375q0,0.1171875-0.1953125,0.5078125q-0.0390625,0.29296875-0.361328125,0.72265625t-0.361328125,0.52734375q-0.0390625,0.078125-0.078125,0.078125l0,0.1953125q0,0.3125-0.234375,0.48828125q-0.46875,0.3125-1.015625,0.390625q0.0390625,0.078125,0.0390625,0.1953125q0,0.60546875-0.95703125,1.25q-0.2734375,0.2734375-0.64453125,0.2734375l-0.078125,0q-0.13671875,0-0.390625,0.263671875t-0.48828125,0.263671875q-0.15625,0.01953125-0.400390625-0.17578125t-0.322265625-0.1953125l-0.078125,0q-0.09765625,0.05859375-0.29296875,0.185546875t-0.29296875,0.185546875q-0.15625,0.078125-0.25390625,0.078125q-0.0390625,0-0.09765625-0.01953125t-0.09765625-0.01953125q-0.13671875,0.0390625-0.234375,0.21484375t-0.234375,0.21484375q-0.21484375,0-0.29296875-0.0390625q-0.13671875,0.13671875-0.234375,0.17578125l-0.1953125,0q-0.13671875,0-0.21484375,0.0390625l-0.1171875,0l-0.15625,0q-0.078125,0-0.234375,0.078125t-0.29296875,0.078125l-0.1171875,0q-0.1171875,0.078125-0.3125,0.078125q-0.09765625,0-0.48828125-0.078125q-0.1171875,0-0.5078125-0.078125l-0.1171875,0l-0.13671875,0q-0.01953125,0-0.087890625-0.01953125t-0.107421875-0.01953125q-0.05859375,0-0.205078125,0.01953125t-0.224609375,0.01953125q-0.09765625,0-0.25390625-0.078125q-0.1171875-0.0390625-0.2734375-0.0390625q-0.234375,0-0.3515625,0.078125q-0.1171875,0.0390625-0.29296875,0.0390625q-0.15625,0-0.4296875-0.078125t-0.37109375-0.09765625q-0.46875-0.0390625-1.318359375-0.3125t-0.986328125-0.3125q-0.72265625-0.17578125-1.0546875-0.37109375q-0.72265625-0.1171875-0.95703125-0.3125q-0.29296875-0.09765625-0.64453125-0.44921875q-0.3515625-0.1171875-0.5078125-0.3515625q-0.09765625-0.0390625-0.52734375-0.37109375q-0.05859375,0.05859375-0.15625,0.25390625t-0.2734375,0.3125q0.078125,0.0390625,0.078125,0.1171875t-0.29296875,0.37109375q-0.05859375,0.01953125-0.1953125,0.3125q-0.1171875,0.17578125-0.478515625,0.33203125t-0.634765625,0.15625q-0.0390625,0-0.107421875-0.01953125t-0.087890625-0.01953125l-0.09765625,0q-0.05859375,0-0.185546875,0.05859375t-0.205078125,0.05859375q-0.01953125,0-0.05859375-0.01953125t-0.05859375-0.01953125q-0.05859375,0-0.52734375-0.1171875q-0.078125,0-0.224609375,0.068359375t-0.244140625,0.087890625q-0.1171875,0.01953125-0.185546875-0.126953125t-0.107421875-0.166015625q-0.37109375,0.05859375-0.56640625-0.205078125t-0.1953125-0.673828125q0-0.234375,0.0390625-0.3515625q0-0.01953125,0.01953125-0.087890625t0.01953125-0.107421875q0-0.078125-0.0390625-0.25390625t-0.0390625-0.2734375q0-0.01953125,0.01953125-0.078125t0.01953125-0.078125q-0.0390625-0.1171875-0.0390625-0.3125q0-0.1171875,0.01953125-0.390625t0.01953125-0.41015625l0-0.21484375q-0.0390625,0.0390625-0.15625,0.0390625q-0.1953125,0-0.1953125-0.1953125q0-0.078125,0.0390625-0.1171875q0.078125-0.078125,0.3125-0.234375q-0.0390625-0.078125-0.0390625-0.33203125q-0.13671875-0.37109375-0.234375-1.15234375q0-0.87890625,0.15625-1.2890625q-0.078125-0.234375-0.078125-0.546875q0-0.13671875,0.01953125-0.41015625t0.01953125-0.390625q-0.0390625,0.0390625-0.1171875,0.0390625q-0.1171875,0-0.1171875-0.1953125q0-0.37109375,0.1171875-0.48828125q0.078125-0.15625,0.078125-0.56640625l0-0.4296875q0-0.29296875,0.0390625-0.41015625l0-0.078125q0-0.56640625,0.72265625-0.80078125q0.078125-0.0390625,0.1953125-0.0390625l0.41015625,0l0.1953125,0l0.1171875,0q0.21484375,0,0.44921875,0.078125q0.72265625,0,1.07421875,0.0390625q0.09765625,0,0.3515625-0.01953125t0.37109375-0.01953125q0.52734375,0,0.72265625,0.25390625q0.21484375,0.21484375,0.5078125,1.54296875q0.390625-0.1953125,0.52734375-0.1953125q0.1171875,0,0.1171875,0.1171875q0,0.13671875-0.0390625,0.17578125q-0.01953125,0.078125-0.224609375,0.244140625t-0.205078125,0.224609375q0.1171875,0.25390625,0.1953125,0.60546875q0.1171875,0.17578125,0.244140625,0.5859375t0.185546875,0.52734375q0.09765625,0.05859375,0.361328125,0.107421875t0.439453125,0.13671875t0.17578125,0.244140625q0,0.09765625-0.13671875,0.3125q0.05859375,0.09765625,0.48828125,0.52734375q0.1171875,0.078125,0.3515625,0.3125q0.0390625,0.01953125,0.166015625,0.09765625t0.234375,0.146484375t0.166015625,0.126953125l0.078125,0q0.05859375,0,0.166015625-0.068359375t0.166015625-0.068359375l0.0390625,0q0.15625,0.05859375,0.15625,0.17578125t-0.078125,0.1953125q0.29296875,0.13671875,0.91796875,0.234375t0.91796875,0.234375q0.1171875,0.078125,0.458984375,0.205078125t0.458984375,0.205078125q0.1171875,0.0390625,0.3125,0.0390625l0.29296875,0l0.078125,0q0.21484375,0,0.76171875-0.234375q0.078125-0.0390625,0.2734375-0.0390625l0.3515625,0l0.21484375,0q0.13671875-0.0390625,0.400390625-0.05859375t0.400390625-0.05859375q0.01953125,0,0.068359375-0.029296875t0.087890625-0.029296875q0.21484375,0,0.56640625,0.17578125q0.0390625-0.01953125,0.146484375-0.029296875t0.205078125-0.048828125q0.078125-0.0390625,0.21484375-0.126953125t0.21484375-0.126953125l0.1171875-0.05859375l0.1171875-0.05859375t0.09765625-0.05859375t0.087890625-0.068359375t0.048828125-0.078125t0.01953125-0.107421875q0-0.17578125,0.17578125-0.322265625t0.1953125-0.244140625q0.01953125-0.15625,0.1953125-0.302734375t0.1953125-0.224609375q0.01953125-0.0390625,0.029296875-0.107421875t0.029296875-0.126953125t0.05859375-0.1171875q0-0.21484375,0.1171875-0.56640625q0-0.0390625-0.01953125-0.146484375t-0.01953125-0.166015625l0-0.078125q-0.05859375-0.13671875-0.1171875-0.478515625t-0.078125-0.439453125q-0.01953125-0.05859375-0.05859375-0.126953125t-0.107421875-0.146484375t-0.1171875-0.1171875t-0.15625-0.1171875t-0.126953125-0.09765625q-0.09765625-0.0390625-0.41015625-0.126953125t-0.46875-0.185546875q-0.0390625,0-0.1953125-0.05859375t-0.234375-0.05859375t-0.1953125,0.078125t-0.17578125,0.078125l-0.078125,0q-0.1171875,0-0.1953125-0.078125q0-0.078125-0.0390625-0.078125q-0.078125,0-0.15625,0.078125l-0.15625,0q-0.37109375,0-0.48828125-0.0390625q-0.2734375-0.078125-0.2734375-0.37109375q0-0.1171875,0.15625-0.1171875l0.078125,0q0.09765625,0.01953125,0.15625,0.09765625q0.01953125,0.01953125,0.0390625,0.01953125q0.078125,0,0.15625-0.0390625q-0.15625-0.09765625-0.44921875-0.1171875t-0.390625-0.0390625q-0.05859375-0.0390625-0.37109375-0.1171875t-0.3515625-0.1171875q-0.78125-0.078125-1.19140625-0.21484375q-0.078125-0.01953125-0.2734375-0.029296875t-0.33203125-0.0390625t-0.1953125-0.126953125q-0.1171875-0.01953125-0.3515625-0.0390625t-0.33203125-0.0390625q-0.15625,0.01953125-0.4296875-0.087890625t-0.576171875-0.25390625t-0.419921875-0.185546875q-0.234375-0.1171875-0.9765625-0.1171875q-0.078125,0-0.25390625,0.01953125t-0.25390625,0.01953125l-0.1171875,0q-0.078125-0.01953125-0.146484375-0.087890625t-0.107421875-0.068359375t-0.1171875,0.0390625q-0.15625,0.078125-0.1953125,0.078125q-0.13671875,0-0.1953125-0.1953125l0-0.15625q0-0.05859375,0.01953125-0.09765625t0.01953125-0.05859375q0-0.0390625-0.15625-0.13671875q-0.46875-0.234375-0.72265625-0.234375q-0.3125,0.05859375-1.015625-0.3515625q-0.13671875-0.05859375-0.4296875-0.244140625t-0.44921875-0.244140625q-0.703125,0.234375-0.80078125,0.234375q-0.0390625,0-0.09765625-0.01953125t-0.09765625-0.01953125q-0.2734375-0.05859375-0.2734375-0.234375t0.390625-0.46875q-0.8984375-0.5859375-1.34765625-1.2109375q-0.17578125,0.1171875-0.25390625,0.1171875q-0.1171875,0-0.1171875-0.3125q0-0.37109375-0.0390625-0.44921875q-0.17578125-0.17578125-0.2734375-0.80078125q-0.3125-0.83984375-0.3125-1.796875q-0.09765625-0.25390625-0.09765625-0.72265625q-0.01953125-0.234375-0.05859375-0.25390625q-0.05859375,0-0.13671875-0.13671875q0-0.01953125-0.01953125-0.0390625t-0.01953125-0.0390625q0-0.09765625,0.234375-0.33203125l0-0.078125l0-0.15625l0-0.078125q0-0.09765625,0.01953125-0.2734375t0.01953125-0.25390625q0-0.1953125,0.09765625-0.5859375q0-0.29296875,0.1171875-0.41015625q0-0.0390625-0.05859375-0.146484375t-0.05859375-0.166015625q0.01953125-0.09765625,0.1171875-0.15625t0.1171875-0.078125q0.01953125-0.05859375,0.0390625-0.146484375t0.0390625-0.146484375q0-0.0390625,0.0390625-0.185546875t0.078125-0.244140625q0-0.4296875,0.1171875-0.72265625q0.0390625-0.09765625,0.126953125-0.244140625t0.126953125-0.244140625q0.078125-0.15625,0.3125-0.3125q0.078125-0.05859375,0.244140625-0.263671875t0.361328125-0.263671875l0-0.1171875q0-0.44921875,0.078125-0.52734375q0.13671875-0.21484375,0.546875-0.5078125t0.44921875-0.33203125q0.05859375-0.078125,0.126953125-0.146484375t0.146484375-0.13671875t0.1171875-0.107421875q0.3515625-0.2734375,0.56640625-0.3515625q0.078125-0.05859375,0.25390625-0.224609375t0.3125-0.224609375q0.33203125-0.17578125,0.99609375-0.390625t0.76171875-0.25390625q0.0390625-0.0390625,0.15625-0.0390625q0.17578125,0,0.234375,0.15625q0.29296875-0.078125,0.29296875-0.1171875q0.01953125-0.0390625,0.087890625-0.126953125t0.1171875-0.13671875t0.107421875-0.1171875t0.13671875-0.09765625t0.17578125-0.029296875l0.29296875,0.078125l0.5078125-0.25390625q0.01953125,0,0.087890625-0.01953125t0.087890625-0.01953125q0.1171875,0,0.3125,0.13671875q0.21484375-0.29296875,0.48828125-0.29296875q0.09765625,0,0.29296875-0.05859375t0.29296875-0.05859375l0.078125,0q0.25390625,0,0.44921875,0.1953125q0.0390625-0.0390625,0.234375-0.0390625l0.1171875,0l0.078125,0q0.078125,0,0.244140625,0.0390625t0.244140625,0.0390625q0.01953125,0,0.078125-0.01953125t0.078125-0.01953125l0.078125,0q0.41015625,0,0.56640625,0.078125q0.078125-0.0390625,0.1953125-0.0390625q0.13671875,0,0.4296875,0.087890625t0.41015625,0.087890625q0.13671875,0,0.25390625-0.05859375q0.0390625-0.0390625,0.1953125-0.0390625q0.21484375,0,0.5078125,0.09765625q0.48828125,0,0.72265625,0.1171875q0.3125,0.078125,0.37109375,0.078125q0.1171875,0,0.3515625-0.078125q0.01953125,0,0.068359375-0.01953125t0.087890625-0.01953125q0.37109375,0,0.37109375,0.15625q0,0.078125-0.1171875,0.1953125l0.83984375,0.15625q0.0390625,0.0390625,0.15625,0.0390625l0.1953125,0q0.1171875,0,0.1171875,0.1171875l0,0.09765625l0,0.0390625q0,0.05859375,0.029296875,0.087890625t0.09765625,0.068359375t0.107421875,0.078125q0.13671875,0.078125,0.4296875,0.341796875t0.46875,0.341796875q0.09765625,0.01953125,0.15625,0.09765625q0.01953125,0.01953125,0.0390625,0.01953125l0.15625-0.078125q0.09765625-0.0390625,0.15625-0.087890625t0.107421875-0.107421875t0.068359375-0.09765625t0.078125-0.126953125t0.078125-0.146484375q-0.01953125-0.390625,0.2734375-0.576171875t0.72265625-0.185546875q0.05859375,0,0.146484375,0.01953125t0.126953125,0.01953125l0.2734375,0q0.21484375,0,0.29296875-0.0390625l0.3515625-0.1171875l0.0390625,0q0.13671875,0.01953125,0.234375,0.068359375t0.13671875,0.048828125q0.01953125,0,0.048828125-0.009765625t0.09765625-0.029296875t0.126953125-0.0390625q0.15625-0.078125,0.390625-0.078125q0.29296875,0,0.41015625,0.0390625q0.25390625,0.01953125,0.4296875,0.234375t0.17578125,0.44921875q0,0.1171875-0.078125,0.2734375q0,0.625-0.13671875,0.95703125l0.13671875,0.95703125q0.078125,0.546875,0.078125,0.8984375q0,0.3125-0.078125,0.703125l0,0.17578125q0,0.25390625,0.05859375,0.78125t0.05859375,0.80078125q0,0.37109375-0.0390625,0.52734375q0.0390625,0.078125,0.0390625,0.33203125q0,0.1953125-0.0390625,0.2734375q0.0390625,0.13671875,0.087890625,0.166015625t0.126953125,0.0390625t0.13671875,0.107421875l0.0390625,0.078125q0,0.1171875-0.224609375,0.29296875t-0.205078125,0.3125q0.01953125,0,0.05859375-0.01953125t0.05859375-0.01953125q0.1953125,0,0.1953125,0.1953125q0,0.21484375-0.15625,0.29296875t-0.15625,0.1953125l0,0.1953125q0.078125-0.078125,0.1953125-0.078125q0.15625,0,0.15625,0.15625q0,0.234375-0.234375,0.41015625q-0.15625,0.15625-0.15625,0.3515625l0,0.1953125q0,0.234375-0.13671875,0.37109375q-0.37109375,0.3125-0.91796875,0.3125q-0.44921875,0-0.83984375-0.1953125q-0.3125,0.078125-0.46875,0.078125q-0.37109375,0-0.83984375-0.078125q-0.0390625,0.0390625-0.1171875,0.0390625l-0.17578125,0l-0.078125,0q-0.0390625,0.01953125-0.21484375,0.126953125t-0.29296875,0.146484375l-0.078125,0q-0.21484375,0-0.21484375-0.1953125q0-0.1171875,0.078125-0.15625q-0.625,0-0.625-1.171875q0-0.2734375,0.078125-0.5078125q-0.0390625-0.4296875-0.37109375-1.2890625q-0.21484375,0.15625-0.4296875,0.15625q-0.1171875,0-0.1171875-0.078125q0-0.1953125,0.3515625-0.4296875q-0.05859375-0.05859375-0.107421875-0.126953125t-0.09765625-0.15625t-0.068359375-0.126953125q-0.09765625-0.17578125-0.322265625-0.44921875t-0.283203125-0.3515625q-0.60546875-0.3515625-0.87890625-0.76171875q-0.17578125-0.1171875-0.234375-0.1171875q-0.01953125,0-0.25390625,0.17578125q-0.0390625,0.0390625-0.1171875,0.0390625q-0.15625,0-0.15625-0.21484375q0-0.13671875,0.1171875-0.1953125q-0.3125-0.09765625-0.80078125-0.478515625t-0.68359375-0.478515625q-0.80078125-0.15625-0.87890625-0.234375q-0.078125,0.0390625-0.3125,0.0390625q-0.15625,0-0.478515625-0.05859375t-0.478515625-0.05859375q-0.0390625,0-0.1171875,0.01953125t-0.1171875,0.01953125q-0.46875,0.15625-0.48828125,0.15625q-0.17578125,0-0.234375-0.1171875q0-0.01953125-0.107421875,0.01953125t-0.234375,0.087890625t-0.185546875,0.048828125q-0.13671875-0.01953125-0.439453125,0.146484375t-0.478515625,0.166015625q-0.078125,0-0.234375-0.078125q-0.390625,0.1953125-0.76171875,0.1953125q-0.13671875,0.01953125-0.322265625,0.126953125t-0.380859375,0.263671875t-0.29296875,0.21484375q-0.78125,0.52734375-0.80078125,0.56640625q-0.29296875,0.83984375-0.29296875,1.23046875q0,0.4296875,0.25390625,0.87890625q0.21484375-0.15625,0.3515625-0.15625q0.1171875,0,0.1171875,0.1953125q0,0.05859375-0.01953125,0.25390625t-0.01953125,0.2734375l0,0.078125q0.078125,0.1171875,0.419921875,0.263671875t0.419921875,0.224609375q0.234375,0.05859375,0.869140625,0.283203125t1.005859375,0.263671875q0.15625-0.01953125,0.5078125,0.107421875t0.5078125,0.107421875q0.05859375,0,0.1953125,0.05859375t0.1953125,0.05859375q0.29296875,0.09765625,0.3515625,0.15625q0.078125-0.0390625,0.37109375-0.0390625q0.33203125,0.13671875,1.103515625,0.244140625t1.142578125,0.263671875q0.09765625,0,0.3515625,0.09765625t0.3125,0.15625q0.078125,0.01953125,0.263671875,0.0390625t0.263671875,0.0390625l0.15625,0q0.13671875,0,0.419921875,0.068359375t0.341796875,0.087890625q0.56640625,0,1.11328125,0.2734375q0.390625,0.0390625,1.3671875,0.76171875q0.4296875,0.0390625,1.15234375,0.41015625q0.1171875,0,0.25390625,0.107421875t0.1953125,0.126953125q0.5078125-0.3125,0.64453125-0.3515625q0.1171875-0.01953125,0.17578125,0.048828125t0.05859375,0.185546875q0,0.078125-0.078125,0.234375q-0.0390625,0.078125-0.078125,0.146484375t-0.05859375,0.09765625t-0.01953125,0.048828125q0,0.05859375,0.15625,0.15625q0.1953125,0.1171875,0.615234375,0.29296875t0.615234375,0.29296875l0.09765625,0.05859375q0.078125,0,0.205078125-0.1171875t0.224609375-0.13671875q0.01953125,0,0.0390625-0.01953125t0.0390625-0.01953125q0.1953125,0,0.1953125,0.234375l0,0.13671875q0,0.01953125,0.01953125,0.01953125q0.05859375,0.01953125,0.078125,0.09765625q0.0390625,0.0390625,0.0390625,0.1171875q0,0.1171875-0.107421875,0.263671875t-0.107421875,0.166015625l0,0.0390625q0.01953125,0.0390625,0.087890625,0.126953125t0.087890625,0.126953125q0.5078125,0.46875,0.703125,1.953125q0.29296875-0.1953125,0.44921875-0.1953125q0.17578125,0,0.234375,0.15625z M82.162890625,58.02734375q0-0.078125-0.0390625-0.15625q-0.3125,0.25390625-0.927734375,0.673828125t-0.849609375,0.595703125q0.0390625-0.01953125,0.576171875-0.2734375t0.87890625-0.46875t0.361328125-0.37109375z M81.069140625,62.4609375l0.25390625-0.1171875q-0.078125,0-0.25390625,0.1171875q0.0390625-0.01953125,0.283203125-0.107421875t0.380859375-0.185546875t0.17578125-0.21484375q-0.1953125,0.13671875-0.83984375,0.5078125z M77.280078125,60.859375q0.3515625-0.2734375,1.09375-0.791015625t1.09375-0.771484375q-1.23046875,0.859375-1.71875,1.1328125q-0.390625,0.234375-0.5859375,0.3125q-0.17578125,0.1171875-0.17578125,0.15625l0,0.21484375q0.0390625-0.0390625,0.146484375-0.126953125t0.146484375-0.126953125z M74.076953125,65.3125l-0.37109375,0.234375l1.1328125-0.72265625q-0.1953125,0.13671875-0.76171875,0.48828125q-2.05078125,1.34765625-3.046875,2.1875q5.3125-3.3984375,8.359375-5.15625q0.25390625-0.13671875,1.03515625-0.56640625t1.2109375-0.625q0.09765625-0.0390625,0.283203125-0.126953125t0.283203125-0.126953125q0.1171875-0.05859375,0.1171875-0.5859375q0-0.09765625-0.01953125-0.21484375l-0.01953125-0.1171875q-7.48046875,4.84375-8.203125,5.33203125z M75.991015625,63.30078125l1.1328125-0.68359375q-0.01953125,0.01953125-0.048828125,0.0390625t-0.126953125,0.078125l-0.1953125,0.1171875t-0.21484375,0.126953125t-0.205078125,0.126953125t-0.17578125,0.107421875t-0.126953125,0.068359375l-0.0390625,0.01953125q1.6796875-0.99609375,3.88671875-2.36328125q0.25390625-0.15625,0.771484375-0.478515625t0.791015625-0.478515625l0.2734375-0.13671875t0.380859375-0.224609375t0.146484375-0.185546875q-2.8515625,1.34765625-3.96484375,2.0703125q-1.03515625,0.64453125-1.6796875,1.15234375q-0.05859375,0.1171875-0.224609375,0.224609375t-0.390625,0.1953125t-0.302734375,0.146484375q0.1171875,0.05859375,0.1171875,0.1953125q0.0390625-0.01953125,0.09765625-0.05859375t0.09765625-0.05859375z M81.323046875,57.5390625l0.1953125-0.1171875q-0.078125,0.0390625-0.1953125,0.1171875q0.0390625-0.01953125,0.146484375-0.078125t0.185546875-0.107421875t0.166015625-0.1171875t0.13671875-0.126953125t0.029296875-0.1171875q-0.3125,0.3125-0.6640625,0.546875z M79.076953125,53.41796875l-0.078125,0.078125l0.078125-0.0390625l0-0.0390625q-0.7421875,0.625-3.4375,2.59765625q0.6640625-0.390625,1.953125-1.142578125t1.953125-1.123046875q-0.05859375-0.05859375-0.244140625-0.17578125t-0.224609375-0.15625z M81.323046875,54.98046875l-0.17578125,0.1171875q0.0390625,0,0.107421875-0.048828125t0.068359375-0.068359375q-0.41015625,0.37109375-1.2109375,1.0546875t-1.19140625,1.03515625q-0.09765625,0.09765625-0.419921875,0.361328125t-0.478515625,0.400390625t-0.37109375,0.37109375t-0.33203125,0.46875q0.390625-0.1171875,0.849609375-0.361328125t0.771484375-0.439453125t0.83984375-0.556640625t0.7421875-0.498046875q0.1953125-0.13671875,0.615234375-0.419921875t0.615234375-0.419921875q-0.0390625-0.1171875-0.1171875-0.4296875q-0.0390625-0.09765625-0.3125-0.56640625z M71.440234375,56.85546875l0.15625-0.1171875q-0.15625,0.078125-0.15625,0.1171875q0.3125-0.17578125,0.8203125-0.517578125t0.64453125-0.439453125q-0.05859375,0.0390625-0.64453125,0.400390625t-0.8984375,0.517578125q0.078125,0,0.078125,0.0390625z M72.436328125,55.01953125l0.3125-0.1953125q-0.5078125,0.2734375-0.5078125,0.3125q0.078125-0.0390625,0.1953125-0.1171875q0.25390625-0.15625,1.005859375-0.634765625t1.1328125-0.72265625t0.95703125-0.673828125t0.986328125-0.83984375q-0.0390625-0.0390625-0.1171875-0.0390625q-0.1953125,0-0.5078125,0.185546875t-0.673828125,0.458984375t-0.419921875,0.3125q-1.23046875,0.80078125-2.01171875,1.3671875q-1.81640625,1.26953125-3.203125,2.0703125q0.1171875,0.0390625,0.29296875,0.0390625q0.1171875,0,0.224609375-0.0390625t0.15625-0.068359375t0.205078125-0.13671875t0.21484375-0.146484375q1.73828125-1.11328125,1.7578125-1.1328125z M76.948046875,52.421875q-0.0390625-0.0390625-0.1171875-0.0390625q-0.0390625,0-0.087890625,0.05859375t-0.107421875,0.09765625q0.078125-0.0390625,0.2734375-0.0390625l0.1171875,0q0-0.078125-0.078125-0.078125z M75.229296875,53.7109375l-0.1171875,0.078125l0.48828125-0.29296875q-0.13671875,0.05859375-0.37109375,0.21484375q-0.29296875,0.1953125-0.869140625,0.595703125t-0.888671875,0.595703125q2.421875-1.30859375,3.4375-2.03125q-0.17578125,0.01953125-0.3515625,0.078125t-0.37109375,0.166015625t-0.3125,0.17578125t-0.3515625,0.224609375z M77.319140625,53.18359375q-0.0390625,0.0390625-0.0390625,0.078125q0,0.01953125,0.1171875-0.078125q0-0.0390625-0.0390625-0.0390625l-0.0390625,0.0390625q-0.1171875,0.17578125-0.283203125,0.33203125t-0.478515625,0.390625t-0.37109375,0.2734375q0.3515625-0.1953125,1.03515625-0.595703125t1.015625-0.595703125q-0.3515625-0.1171875-0.41015625-0.15625q-0.3125,0.234375-0.5078125,0.3515625z M75.229296875,51.69921875q-0.01953125,0-0.078125-0.01953125t-0.078125-0.01953125t-0.048828125,0.009765625t-0.048828125,0.01953125t-0.048828125,0.0390625l-0.048828125,0.048828125t-0.048828125,0.05859375t-0.048828125,0.068359375t-0.048828125,0.078125t-0.048828125,0.087890625q-0.234375,0.2734375-0.9765625,0.91796875q-1.19140625,1.0546875-3.4765625,2.67578125q0.7421875-0.44921875,2.65625-1.787109375t3.02734375-1.962890625q-0.1171875,0-0.361328125-0.09765625t-0.322265625-0.1171875z M69.194140625,53.75l0.95703125-0.56640625q0.01953125,0-0.234375,0.146484375t-0.517578125,0.302734375t-0.283203125,0.15625l0.078125-0.0390625q3.30078125-1.93359375,4.16015625-2.36328125q-0.234375-0.078125-0.2734375-0.078125q-0.078125,0-0.25390625,0.1171875q-0.09765625,0.05859375-0.3125,0.17578125t-0.3125,0.17578125q-0.95703125,0.625-2.08984375,1.2109375q-0.234375,0.13671875-1.044921875,0.60546875t-1.181640625,0.68359375t-0.9765625,0.60546875t-1.07421875,0.7421875q0.078125,0.01953125,0.283203125-0.068359375t0.390625-0.1953125t0.41015625-0.25390625t0.244140625-0.166015625q0.4296875-0.21484375,1.142578125-0.654296875t0.888671875-0.537109375z M71.479296875,52.87109375l-0.078125,0.078125l0.078125-0.078125q-0.09765625,0.05859375-0.283203125,0.15625t-0.283203125,0.15625q0.13671875-0.05859375,0.56640625-0.3125z M66.948046875,55.7421875l0.078125-0.0390625l-0.0390625,0q-0.0390625,0-0.0390625,0.0390625q1.3671875-0.78125,2.01171875-1.23046875q-1.2109375,0.56640625-2.28515625,1.19140625l0.1171875,0q0.1171875,0,0.15625,0.0390625z M70.346484375,50.6640625l0.0390625,0l-0.0390625,0q0.09765625-0.0390625-0.52734375,0.546875q0,0.01953125-0.0390625,0.0390625l-0.05859375,0.05859375q-1.2890625,0.8984375-1.93359375,1.38671875q-0.09765625,0.078125-0.46875,0.37109375t-0.517578125,0.41015625t-0.458984375,0.380859375t-0.48828125,0.4296875t-0.41015625,0.41015625t-0.41015625,0.478515625q0.1171875,0.05859375,0.4296875-0.107421875t0.68359375-0.41015625t0.44921875-0.283203125q0.3125-0.1953125,0.966796875-0.576171875t0.986328125-0.576171875q0.64453125-0.37109375,1.923828125-1.11328125t1.923828125-1.09375q-0.21484375-0.0390625-0.64453125-0.078125t-0.46875-0.0390625q-0.1171875,0-0.46875-0.087890625t-0.46875-0.146484375z M69.311328125,50.46875q-0.078125,0-0.1171875-0.01953125q-0.01953125-0.01953125-0.0390625-0.01953125l-0.1171875,0.1171875q-0.09765625,0.1171875-0.44921875,0.390625q-1.09375,0.9375-1.34765625,1.1328125q0.13671875-0.078125,0.80078125-0.5078125t1.09375-0.654296875t0.859375-0.361328125q-0.1171875-0.078125-0.68359375-0.078125z M67.709765625,50.01953125l-0.0390625,0l0.0390625,0l-0.46875-0.15625q-0.078125,0-0.166015625,0.05859375t-0.17578125,0.15625t-0.146484375,0.13671875q-0.56640625,0.56640625-1.15234375,1.09375q-1.30859375,1.171875-3.3203125,2.75390625q0.15625,0.15625,0.3515625,0.15625q0.17578125,0,0.76171875-0.390625q0.72265625-0.4296875,1.7578125-1.1328125q2.24609375-1.484375,3.4375-2.3828125q-0.09765625-0.09765625-0.1953125-0.09765625l-0.234375,0q-0.33203125-0.17578125-0.44921875-0.1953125z M66.030078125,49.3359375l-0.0390625,0l0.0390625,0q-0.37109375,0-0.80078125-0.546875q-0.7421875,0.625-2.451171875,1.767578125t-2.509765625,1.865234375l0.0390625,0q0.1953125-0.13671875,0.83984375-0.5859375t0.95703125-0.654296875t0.83984375-0.556640625t0.99609375-0.60546875t0.9375-0.46875q0.4296875-0.21484375,0.91796875-0.21484375q0.3125,0,0.3125,0.21484375q0,0.09765625-0.1171875,0.2734375q0.0390625-0.01953125,0.1171875-0.068359375t0.146484375-0.09765625t0.146484375-0.107421875q-0.09765625-0.0390625-0.37109375-0.21484375z M63.041796875,51.23046875l0.2734375-0.17578125l-0.48828125,0.29296875q0.05859375-0.0390625,0.21484375-0.1171875l0.64453125-0.322265625t0.712890625-0.37109375t0.615234375-0.37109375t0.5859375-0.458984375q-0.46875,0.0390625-1.25,0.56640625q-0.87890625,0.48828125-2.94921875,1.875q1.15234375-0.68359375,1.640625-0.91796875z M64.272265625,50.9765625l-0.87890625,0.56640625q0.234375-0.1171875,0.87890625-0.56640625q-0.13671875,0.078125-1.279296875,0.68359375t-1.708984375,0.99609375q0.25390625-0.078125,0.537109375-0.205078125t0.498046875-0.244140625t0.52734375-0.3125t0.46875-0.283203125t0.5078125-0.33203125t0.44921875-0.302734375z M60.073046875,52.03125q0-0.01953125,0.09765625-0.1171875t0.29296875-0.234375t0.400390625-0.283203125t0.458984375-0.3125t0.439453125-0.283203125t0.361328125-0.234375t0.1953125-0.13671875q2.20703125-1.54296875,2.67578125-1.97265625q0-0.0390625-0.0390625-0.078125q-1.85546875,1.30859375-3.359375,2.20703125q-1.171875,0.64453125-1.5625,0.76171875q-0.078125,0.0390625-0.078125,0.1953125q0,0.13671875,0.1171875,0.48828125z M61.596484375,43.06640625l0,0.0390625l0-0.0390625q0.078125,0.15625,0.078125,0.234375q0.078125-0.078125,0.244140625-0.21484375t0.244140625-0.21484375l-0.09765625,0q-0.46875,0-0.46875,0.15625l0,0.0390625z M67.963671875,41.0546875l-0.29296875,0.21484375l0.41015625-0.29296875q-0.0390625,0.0390625-0.1171875,0.078125q-1.23046875,0.80078125-4.2578125,2.6953125q-0.4296875,0.2734375-1.25,0.771484375t-1.23046875,0.751953125q-0.078125,0.05859375-0.3515625,0.1953125t-0.400390625,0.224609375t-0.283203125,0.263671875t-0.1953125,0.3515625q0.91796875-0.546875,2.763671875-1.6796875t2.763671875-1.6796875q2.63671875-1.58203125,4.0625-2.67578125l-0.1171875,0l-0.15625,0q-0.15625,0-0.3125,0.078125q-0.15625,0.1171875-1.03515625,0.703125z M71.108203125,40.390625q-0.7421875,0.4296875-2.236328125,1.2890625t-2.236328125,1.30859375q0.234375-0.078125,0.390625-0.078125l0.13671875,0q0.13671875,0.01953125,0.25390625,0.107421875t0.17578125,0.087890625q0.1171875,0,0.234375-0.078125q0.25390625-0.15625,0.751953125-0.478515625t0.771484375-0.478515625q1.6015625-1.09375,2.24609375-1.71875q-0.05859375,0-0.1953125,0.01953125t-0.21484375,0.01953125l-0.078125,0z M73.315234375,40.5078125q-0.078125,0-0.078125,0.078125q0.1171875,0,0.1171875-0.078125l-0.0390625,0z M69.994921875,42.578125q-0.01953125,0-0.0390625,0.01953125t-0.0390625,0.01953125q0.3515625-0.1171875,0.4296875-0.1171875q0.05859375,0,0.21484375,0.078125q0.078125-0.0390625,0.078125-0.078125l0.46875-0.3515625q0.15625-0.09765625,0.458984375-0.322265625t0.458984375-0.322265625q-0.33203125,0.17578125-1.005859375,0.537109375t-1.025390625,0.537109375z M75.483203125,41.11328125l-0.09765625,0.078125l0.09765625-0.0390625l0-0.0390625q-0.3515625,0.29296875-0.68359375,0.625q0.52734375-0.390625,0.91796875-0.4296875q-0.0390625-0.0390625-0.1171875-0.09765625t-0.1171875-0.09765625z M71.362109375,42.65625l0.0390625,0l-0.0390625,0q0.15625-0.078125,0.1953125-0.1171875q-0.0390625,0-0.1171875,0.048828125t-0.078125,0.068359375z M64.311328125,46.50390625q0-0.0390625-0.0390625-0.0390625l0,0.0390625l0,0.0390625l0.0390625-0.0390625l0-0.078125q0-0.33203125,0.078125-0.48828125q-0.76171875,0.72265625-2.294921875,2.16796875t-2.294921875,2.16796875q0.5078125-0.1953125,0.9765625-0.5078125t1.181640625-0.888671875t0.869140625-0.693359375q0.0390625-0.01953125,0.322265625-0.25390625t0.60546875-0.4296875t0.517578125-0.1953125q0.13671875,0,0.1953125,0.1171875l-0.107421875-0.322265625t-0.087890625-0.400390625q0-0.15625,0.0390625-0.1953125z M66.635546875,43.7109375q0.0390625-0.01953125,0.09765625-0.078125t0.107421875-0.087890625t0.107421875-0.048828125q-0.05859375,0.01953125-0.107421875,0.048828125t-0.107421875,0.087890625t-0.09765625,0.078125z M59.682421875,47.79296875q0,0.01953125,0.5859375-0.3125t0.95703125-0.56640625q0.3515625-0.1953125,1.0546875-0.60546875t1.07421875-0.60546875q0.17578125-0.09765625,0.517578125-0.302734375t0.517578125-0.302734375q0.05859375-0.0390625,0.234375-0.126953125t0.283203125-0.146484375t0.224609375-0.15625t0.13671875-0.1953125q0.3125-0.83984375,1.171875-1.3671875q-2.05078125,1.19140625-4.16015625,2.40234375q-0.3515625,0.1953125-1.07421875,0.615234375t-1.09375,0.615234375q-0.1953125,0.09765625-0.2734375,0.244140625t-0.09765625,0.419921875t-0.05859375,0.390625z M59.643359375,49.82421875l0.0390625,0l-0.0390625,0q0-0.01953125,0.322265625-0.29296875t0.380859375-0.3125q0.25390625-0.2734375,1.484375-1.38671875q1.5234375-1.4453125,2.28515625-2.12890625q-0.234375,0.15625-3.359375,2.28515625q-0.33203125,0.25390625-1.171875,0.76171875q0.05859375,0.3515625,0.05859375,0.76171875l0,0.3125z M59.877734375,51.015625q0.3125-0.09765625,0.3125-0.15625q0-0.0390625-0.0390625-0.0390625q-0.078125,0-0.2734375,0.1953125q0.29296875-0.078125,0.56640625-0.205078125t0.712890625-0.41015625t0.478515625-0.302734375q1.5234375-0.91796875,3.125-2.03125q-0.21484375-0.13671875-0.21484375-0.48828125q0,0.17578125-0.1171875,0.3515625t-0.361328125,0.361328125t-0.41015625,0.29296875t-0.44921875,0.263671875t-0.302734375,0.17578125q-0.2734375,0.17578125-0.966796875,0.556640625t-1.201171875,0.72265625t-0.859375,0.712890625z M72.709765625,42.91015625l0.09765625,0t0.068359375-0.009765625l0.05859375-0.01953125t0.048828125-0.01953125t0.05859375-0.048828125t0.05859375-0.048828125t0.068359375-0.068359375t0.068359375-0.078125q0.09765625-0.09765625,0.33203125-0.302734375t0.3515625-0.322265625q-0.25390625,0.13671875-0.72265625,0.419921875t-0.72265625,0.419921875q0.15625,0.078125,0.234375,0.078125z M74.994921875,44.1796875l0-0.0390625l0,0.0390625q0.078125,0.0390625,0.5078125-0.380859375t0.947265625-0.986328125t0.537109375-0.5859375q-0.09765625-0.05859375-0.341796875,0.029296875t-0.576171875,0.302734375t-0.615234375,0.41015625t-0.5859375,0.4296875t-0.361328125,0.2734375l-0.078125,0q-0.234375,0-0.234375-0.21484375q0-0.0390625,0.0390625-0.078125l0.3515625-0.46875q0.13671875-0.17578125,0.4296875-0.546875t0.4296875-0.546875q-0.72265625,0.3515625-2.08984375,1.328125q0.46875,0.234375,0.87890625,0.64453125q0.7421875,0.37109375,0.76171875,0.390625z M81.323046875,46.54296875l0,0.0390625l0-0.0390625q0.01953125,0.0390625-0.3515625,0.41015625t-0.888671875,0.869140625t-0.537109375,0.517578125q0.05859375-0.01953125,0.6640625-0.41015625t0.9375-0.546875q0.21484375-0.1171875,0.21484375-0.2734375q0-0.05859375-0.01953125-0.21484375t-0.01953125-0.234375l0-0.1171875z M81.323046875,47.79296875q0-0.0390625-0.654296875,0.380859375t-1.376953125,0.8984375t-0.8203125,0.517578125q0.0390625,0.0390625,0.1171875,0.0390625q0.234375,0,0.83984375-0.44921875q0.234375-0.15625,0.654296875-0.458984375t0.634765625-0.458984375q0.0390625-0.01953125,0.166015625-0.087890625t0.1953125-0.1171875t0.146484375-0.126953125t0.09765625-0.13671875z M81.225390625,45.05859375l0,0.0390625l0-0.0390625q-0.33203125,0.33203125-1.318359375,1.15234375t-1.435546875,1.3671875q1.15234375-0.68359375,1.9140625-1.11328125q0.25390625-0.15625,0.8984375-0.52734375q0.0390625,0,0.0390625-0.1953125q0-0.48828125-0.09765625-0.68359375z M80.444140625,46.85546875q-1.2890625,0.78125-1.93359375,1.1328125q-0.2734375,0.13671875-0.2734375,0.2734375l0,0.15625q0,0.13671875-0.0390625,0.29296875l0,0.078125q0,0.05859375-0.01953125,0.244140625t-0.01953125,0.263671875q0,0.21484375,0.078125,0.21484375q0-0.01953125-0.01953125-0.0390625t-0.01953125-0.0390625q0-0.13671875,0.166015625-0.3515625t0.400390625-0.458984375t0.2734375-0.283203125q0.4296875-0.4296875,1.40625-1.484375z M81.108203125,41.9140625l0-0.09765625q-0.625,0.64453125-1.845703125,1.943359375t-1.826171875,1.943359375q0.41015625-0.234375,2.0703125-1.5234375q0.859375-0.76171875,1.3671875-0.83984375q0.3515625-0.05859375,0.3515625,0.1953125q0,0.37109375-0.46875,0.83984375q-0.64453125,0.68359375-1.796875,1.5625q0.2734375-0.17578125,1.23046875-0.6640625q0.703125-0.52734375,0.95703125-0.52734375l0.078125,0l0-0.64453125q0-0.56640625,0.09765625-0.95703125q-0.01953125-0.13671875-0.1171875-0.52734375t-0.09765625-0.5859375l0-0.1171875z M78.471484375,42.03125l0.0390625,0l-0.0390625,0q0,0.01953125,0.05859375-0.029296875t0.126953125-0.09765625t0.087890625-0.048828125z M77.319140625,42.4609375q-0.17578125,0.17578125-0.546875,0.537109375t-0.546875,0.537109375q0.78125-0.52734375,1.3671875-0.91796875q-0.05859375-0.01953125-0.15625-0.087890625t-0.1171875-0.068359375z M77.748828125,42.98828125q-0.01953125,0,0.21484375-0.166015625t0.46875-0.322265625l0.234375-0.15625q-0.234375,0.15625-0.91796875,0.64453125q0.46875-0.33203125,1.66015625-0.9375t1.66015625-0.8984375q-0.546875,0.1171875-1.240234375,0.48828125t-0.99609375,0.5859375t-1.083984375,0.76171875z M79.467578125,41.42578125l0.078125-0.0390625l-0.078125,0.0390625q0.48828125-0.234375,0.52734375-0.2734375q-0.1171875,0-0.52734375,0.2734375z M76.674609375,45.5859375q0.17578125,0.1171875,0.1953125,0.1171875q0.05859375,0,0.33203125-0.2734375q0.13671875-0.15625,0.576171875-0.625t0.654296875-0.7421875q1.2890625-1.3671875,1.953125-2.03125q-1.328125,0.72265625-2.109375,1.23046875q-0.17578125,0.09765625-0.712890625,0.4296875t-0.810546875,0.48828125l-0.17578125,0.1171875q-0.1953125,0.1171875-0.380859375,0.205078125t-0.283203125,0.087890625q-0.1171875,0-0.1171875-0.1171875q0-0.09765625,0.0390625-0.17578125q-0.15625,0.15625-0.2734375,0.21484375q0.703125,0.56640625,1.11328125,1.07421875z M77.397265625,46.58203125q0.13671875,0.13671875,1.611328125-1.11328125t1.787109375-1.6796875q-0.33203125,0.13671875-0.654296875,0.361328125t-0.751953125,0.5859375t-0.5859375,0.478515625q-0.078125,0.05859375-0.44921875,0.3515625t-0.625,0.439453125t-0.52734375,0.224609375q0.0390625,0.05859375,0.09765625,0.17578125t0.09765625,0.17578125z M77.709765625,47.1484375q0.0390625,0.078125,0.126953125,0.234375t0.126953125,0.234375q0.3125-0.52734375,1.38671875-1.42578125q-0.0390625,0.01953125-0.48828125,0.263671875t-0.810546875,0.44921875t-0.341796875,0.244140625z M76.108203125,41.58203125q-0.01953125-0.01953125-0.21484375,0.244140625t-0.419921875,0.556640625t-0.244140625,0.3125q0.234375-0.13671875,0.64453125-0.390625t0.64453125-0.390625q-0.33203125-0.234375-0.41015625-0.33203125z M73.002734375,41.26953125q0.17578125-0.09765625,0.537109375-0.322265625t0.537109375-0.322265625q-0.1953125,0.01953125-0.37109375,0.107421875t-0.4296875,0.302734375t-0.2734375,0.234375z M72.592578125,40.4296875l-0.1953125,0.1171875q0.0390625-0.0390625,0.1953125-0.1171875q-0.078125-0.0390625-0.1953125-0.0390625q-0.29296875,0-0.68359375,0.390625q-0.76171875,0.6640625-1.40625,1.07421875q0.41015625-0.21484375,1.162109375-0.72265625t1.123046875-0.703125z M70.346484375,40.2734375q-0.25390625,0.09765625-0.693359375,0.4296875t-0.576171875,0.41015625q0.1171875-0.05859375,1.4453125-0.80078125q-0.0390625,0-0.09765625-0.01953125t-0.078125-0.01953125z M65.834765625,40.703125q-0.0390625,0.0390625-0.0390625,0.078125l0.078125-0.078125l-0.0390625,0q-0.17578125,0.1953125-0.546875,0.234375t-0.52734375,0.21484375q-0.68359375,0.76171875-1.25,1.07421875q-0.17578125,0.09765625-0.91796875,0.76171875q-0.05859375,0.05859375-0.5859375,0.52734375t-0.8203125,0.703125q-0.1171875,0.1171875-0.400390625,0.44921875t-0.439453125,0.46875q0.5859375-0.29296875,1.19140625-0.693359375t1.38671875-0.99609375t1.11328125-0.830078125q1.81640625-1.19140625,3.203125-2.03125q-0.078125,0.0390625-0.21484375,0.0390625q-0.15625,0-0.234375-0.0390625l-0.078125,0q-0.078125,0-0.185546875,0.0390625t-0.166015625,0.0390625q-0.1953125-0.0390625-0.29296875-0.0390625q-0.078125,0-0.234375,0.078125z M61.713671875,53.7890625l0.0390625,0l-0.0390625,0q0.078125,0.078125,0.15625,0.078125t0.1953125-0.1171875q0.1171875-0.078125,0.33203125-0.29296875q0.41015625-0.29296875,0.76171875-0.5859375q0.2734375-0.21484375,0.78125-0.6640625t0.78125-0.6640625q1.07421875-0.87890625,1.796875-1.6015625q-3.14453125,2.1875-4.6484375,2.890625q-0.46875,0.234375-0.76171875,0.2734375q-0.17578125,0.01953125-0.283203125-0.068359375t-0.107421875-0.205078125q0-0.17578125,0.15625-0.33203125q-0.3125,0.21484375-0.3125,0.33203125q0,0.0390625,0.0390625,0.078125t0.126953125,0.1171875t0.146484375,0.15625q0.17578125,0.05859375,0.458984375,0.302734375t0.380859375,0.302734375z M61.479296875,54.70703125l-0.1171875,0.1171875q0.0390625-0.01953125,0.1171875-0.0390625t0.1171875-0.0390625q-0.0390625-0.0390625-0.1171875-0.0390625z M64.155078125,53.828125l-0.2734375,0.15625q0.0390625,0,0.2734375-0.15625q-0.4296875,0.29296875-1.07421875,0.64453125q0.05859375,0.0390625,0.17578125,0t0.25390625-0.13671875t0.244140625-0.17578125t0.244140625-0.1953125t0.15625-0.13671875z M64.194140625,54.90234375l0.0390625,0l-0.0390625,0q0.13671875,0,0.44921875,0.15625q0.05859375-0.078125,0.17578125-0.21484375t0.17578125-0.21484375q0.29296875-0.29296875,0.91796875-0.83984375q0.80078125-0.703125,2.28515625-1.8359375q-2.51953125,1.484375-4.609375,2.79296875q0.078125,0.01953125,0.244140625,0.087890625t0.283203125,0.068359375l0.078125,0z M67.905078125,56.0546875l0.05859375,0l-0.05859375,0q0.1171875,0,0.33203125,0.126953125t0.3515625,0.126953125q0.078125,0,0.205078125-0.078125t0.29296875-0.21484375t0.185546875-0.15625q1.1328125-0.78125,2.28515625-1.640625q2.1875-1.6015625,2.94921875-2.55859375q-0.078125-0.0390625-0.234375-0.0390625q-0.1171875,0-0.234375,0.078125t-0.263671875,0.244140625t-0.224609375,0.244140625q-0.703125,0.52734375-1.7578125,0.99609375q-0.859375,0.4296875-2.32421875,1.416015625t-1.9921875,1.298828125q0.05859375,0.01953125,0.205078125,0.087890625t0.224609375,0.068359375z M72.280078125,57.0703125l0.0390625,0l-0.0390625,0q0.13671875,0,0.400390625,0.09765625t0.400390625,0.09765625q0.15625,0,0.2734375-0.078125q0.3125-0.21484375,0.908203125-0.654296875t0.888671875-0.673828125q2.08984375-1.42578125,3.59375-2.67578125q-0.09765625-0.05859375-0.400390625,0.107421875t-0.673828125,0.4296875t-0.4296875,0.302734375q-0.29296875,0.15625-1.71875,1.03515625q-0.68359375,0.390625-1.962890625,1.1328125t-1.435546875,0.83984375q0.078125,0.0390625,0.15625,0.0390625z M75.991015625,58.49609375q0.83984375,0.4296875,0.83984375,1.640625q2.1875-1.34765625,3.28125-2.1484375l0.29296875-0.1953125q0.2734375-0.1953125,0.48828125-0.3515625t0.478515625-0.37109375t0.400390625-0.390625t0.09765625-0.29296875q-1.796875,1.25-3.59375,2.24609375q-0.8203125,0.46875-1.11328125,0.46875t-0.29296875-0.234375q0-0.3515625,0.33203125-0.68359375q0.25390625-0.3125,0.595703125-0.654296875t0.60546875-0.556640625t0.712890625-0.595703125t0.64453125-0.556640625q0.0390625-0.0390625,0.400390625-0.322265625t0.634765625-0.537109375t0.234375-0.33203125q-0.078125-0.078125-0.15625-0.078125t-0.1953125,0.078125q-1.66015625,0.9765625-1.796875,1.03515625q-2.6953125,1.58203125-3.69140625,2.28515625q0.09765625,0.05859375,0.283203125,0.15625t0.3125,0.185546875t0.205078125,0.205078125z M73.705859375,64.58984375l-0.0390625,0.0390625l0.0390625-0.0390625q-0.1953125,0.1953125-0.46875,0.1953125q-0.1953125,0-0.2734375-0.0390625q-0.5078125,0.4296875-0.72265625,0.56640625q-0.72265625,0.56640625-1.71875,1.19140625q0.234375-0.13671875,0.732421875-0.419921875t0.732421875-0.419921875q0.3125-0.15625,1.044921875-0.5859375t0.673828125-0.48828125z M70.600390625,65.05859375l-0.15625,0.1171875q0.0390625,0,0.09765625-0.048828125t0.05859375-0.068359375q-0.13671875,0.09765625-0.52734375,0.3515625t-0.595703125,0.390625t-0.498046875,0.37109375t-0.5078125,0.44921875q1.1328125-0.546875,2.63671875-1.5234375q-0.05859375,0-0.15625,0.01953125t-0.15625,0.01953125q-0.0390625,0-0.1953125-0.078125z M68.041796875,64.2578125q-0.13671875,0-0.17578125-0.0390625q0.0390625,0.0390625,0.0390625,0.15625q0,0.37109375-0.703125,2.01171875q1.2890625-0.95703125,2.34375-1.6015625q-0.15625-0.0390625-0.380859375-0.15625t-0.322265625-0.15625q-0.60546875-0.09765625-0.80078125-0.21484375z M66.752734375,63.8671875q-0.09765625-0.01953125-0.263671875,0.1171875t-0.361328125,0.380859375t-0.361328125,0.478515625t-0.33203125,0.478515625t-0.205078125,0.302734375q0.17578125-0.1171875,0.546875-0.390625t0.60546875-0.439453125t0.5859375-0.3515625t0.6640625-0.263671875q-0.48828125,0-0.87890625-0.3125z M59.643359375,64.82421875q0-0.0390625,0.13671875-0.13671875t0.361328125-0.234375t0.5078125-0.29296875t0.5859375-0.3125t0.556640625-0.29296875t0.44921875-0.244140625t0.234375-0.126953125q0.9375-0.48828125,1.6796875-1.03515625q0.234375-0.17578125,0.234375-0.234375q0-0.078125-0.1953125-0.21484375q-0.1953125-0.05859375-1.19140625,0.60546875q-0.33203125,0.21484375-0.927734375,0.615234375t-0.673828125,0.458984375q-0.09765625,0.05859375-0.439453125,0.2734375t-0.576171875,0.37109375t-0.46875,0.390625t-0.2734375,0.41015625z M61.908984375,64.21875l-0.46875,0.29296875l0.5078125-0.33203125l-0.0390625,0.0390625q-0.13671875,0.078125-0.87890625,0.517578125t-1.15234375,0.654296875q-0.234375,0.13671875-0.234375,0.2734375l0,0.1953125l0,0.15625l0,0.25390625l0,0.5078125q0.05859375,0,0.17578125-0.126953125t0.25390625-0.283203125t0.15625-0.17578125q0.078125-0.078125,0.224609375-0.234375t0.283203125-0.29296875t0.25390625-0.234375q1.15234375-1.15234375,1.7578125-1.71875q-0.64453125,0.37109375-0.83984375,0.5078125z M65.385546875,63.7890625l-0.15625,0.078125q0.0390625,0,0.15625-0.078125q0.09765625-0.05859375,0.283203125-0.185546875t0.283203125-0.185546875q-0.0390625-0.0390625-0.1171875-0.0390625q-0.48828125,0-1.9921875,1.1328125q0.25390625-0.1171875,0.76171875-0.361328125t0.78125-0.361328125z M65.385546875,62.98828125q-0.29296875-0.13671875-0.625-0.64453125q0-0.0390625-0.078125-0.0390625t-0.234375,0.15625t-0.322265625,0.380859375t-0.205078125,0.263671875q-1.3671875,1.30859375-2.6953125,2.63671875q0.68359375-0.3515625,2.0703125-1.298828125t2.2265625-1.337890625q-0.01953125-0.01953125-0.068359375-0.05859375t-0.068359375-0.05859375z M63.041796875,59.58984375q-0.01953125-0.078125-0.185546875,0.107421875t-0.361328125,0.4296875t-0.21484375,0.263671875q-0.68359375,0.80078125-2.12890625,2.40234375q0.46875-0.29296875,1.4453125-0.849609375t1.4453125-0.830078125q0.4296875-0.21484375,0.4296875-0.37109375l-0.078125-0.3125q-0.33203125-0.64453125-0.3515625-0.83984375z M59.467578125,62.94921875l0.41015625-0.44921875q-0.41015625,0.41015625-0.41015625,0.44921875q1.484375-1.62109375,2.55859375-2.890625q-0.1953125,0.1171875-1.064453125,0.771484375t-1.376953125,0.830078125q-0.234375,0.1171875-0.234375,0.48828125q0,0.21484375,0.1171875,0.80078125z M62.319140625,57.79296875q-0.05859375,0.01953125-0.1171875,0.029296875t-0.078125,0.01953125t-0.048828125,0.009765625t-0.0390625,0.029296875t-0.029296875,0.05859375l-0.05859375,0.087890625q-0.1171875,0.1953125-0.3515625,0.5078125q-0.3125,0.390625-1.5234375,1.77734375q0.390625-0.234375,1.19140625-0.703125t1.2109375-0.703125q0.2734375-0.13671875,0.2734375-0.234375q0-0.0390625-0.009765625-0.09765625t-0.029296875-0.15625l-0.0390625-0.1953125q-0.0390625-0.078125-0.068359375-0.166015625t-0.048828125-0.126953125t-0.068359375-0.078125t-0.166015625-0.05859375z M60.346484375,57.79296875l-0.0390625,0l0.0390625,0q-0.078125,0.078125-0.2734375,0.078125q-0.21484375,0-0.56640625-0.1171875q-0.1171875,0.17578125-0.1171875,0.390625l0,0.390625l0,0.17578125q0.5859375-0.3125,1.484375-0.87890625q-0.33203125,0-0.52734375-0.0390625z M60.073046875,58.7890625l-0.0390625,0.0390625l0.1953125-0.15625q-0.0390625,0.0390625-0.15625,0.1171875q-0.3515625,0.17578125-0.64453125,0.3515625q0.0390625,0.1171875,0.0390625,0.41015625q0.0390625,0.234375,0.0390625,0.80078125q0.15625-0.17578125,0.52734375-0.576171875t0.5859375-0.634765625t0.498046875-0.595703125t0.478515625-0.673828125q-1.2109375,0.72265625-1.5234375,0.91796875z M60.834765625,63.06640625q-0.05859375,0.01953125-0.3515625,0.15625t-0.44921875,0.224609375t-0.322265625,0.244140625t-0.166015625,0.33203125q0,0.01953125,0.01953125,0.078125t0.01953125,0.078125q0.3125-0.234375,0.95703125-0.732421875t0.9765625-0.751953125q-0.1171875,0.05859375-0.341796875,0.185546875t-0.341796875,0.185546875z M64.194140625,65.5078125l0-0.0390625l0,0.0390625q0.078125,0.01953125,0.185546875,0.126953125t0.166015625,0.107421875t0.13671875-0.078125q0.1171875-0.13671875,0.29296875-0.361328125t0.21484375-0.283203125q0.72265625-0.91796875,1.03515625-1.26953125q-1.58203125,1.015625-2.34375,1.34765625q0.21484375,0.21484375,0.3125,0.41015625z M66.440234375,66.58203125l-0.0390625,0l0.0390625,0q0.0390625,0.01953125,0.087890625,0.0390625t0.068359375,0.029296875t0.0390625,0.009765625l0.1171875-0.234375q0.0390625-0.078125,0.09765625-0.244140625t0.09765625-0.244140625q0.05859375-0.21484375,0.224609375-0.634765625t0.224609375-0.595703125q-0.390625,0.234375-1.1328125,0.712890625t-1.11328125,0.693359375q0.29296875,0.234375,0.64453125,0.3515625q0.3515625,0,0.64453125,0.1171875z M67.826953125,67.1484375q0.09765625,0,0.302734375,0.078125t0.302734375,0.078125q0.1171875,0.01953125,0.302734375-0.068359375t0.322265625-0.17578125t0.341796875-0.25390625t0.244140625-0.185546875q1.54296875-1.03515625,2.1484375-1.484375q-1.38671875,0.83984375-2.75390625,1.640625q-0.078125,0.0390625-0.25390625,0.146484375t-0.322265625,0.17578125t-0.263671875,0.087890625q-0.234375,0-0.234375-0.234375q0-0.29296875,0.1171875-0.41015625q0.09765625-0.13671875,0.21484375-0.263671875t0.2734375-0.25390625t0.263671875-0.21484375t0.3125-0.234375t0.283203125-0.1953125t0.3125-0.205078125l0.29296875-0.1953125q-0.1171875-0.01953125-0.33203125,0.09765625t-0.41015625,0.25390625t-0.439453125,0.33203125t-0.302734375,0.234375q-0.25390625,0.15625-0.703125,0.478515625t-0.68359375,0.478515625q0.5859375,0.29296875,0.6640625,0.29296875z M69.506640625,67.5q0.078125-0.0390625,0.44921875-0.0390625q0.390625,0,0.4296875,0.0390625q0.5859375-0.5078125,0.83984375-0.68359375q0.390625-0.3125,1.142578125-0.8203125t0.947265625-0.64453125q-0.44921875,0.2734375-1.2890625,0.732421875t-1.15234375,0.654296875q-1.30859375,0.78125-1.3671875,0.76171875z M75.229296875,67.265625l0.0390625-0.078125q-0.078125,0-0.078125,0.0390625t0.0390625,0.0390625q0.21484375-0.2734375,0.48828125-0.2734375q0.1953125,0,0.2734375,0.078125q0.1171875,0.1171875,0.1953125,0.1171875q0.01953125,0,0.33203125-0.234375q0.17578125-0.1171875,0.3515625-0.29296875q0.2734375-0.09765625,0.56640625-0.322265625t0.634765625-0.52734375t0.517578125-0.419921875q0.6640625-0.48828125,1.796875-1.40625q0.078125-0.05859375,0.29296875-0.21484375t0.322265625-0.244140625t0.234375-0.263671875t0.166015625-0.3515625q-0.56640625,0.3515625-1.81640625,0.966796875t-1.8359375,0.986328125q-2.01171875,1.25-4.31640625,2.83203125q0.15625,0.01953125,0.41015625-0.078125t0.3515625-0.1171875t0.37109375-0.166015625t0.4296875-0.146484375q0.078125,0,0.234375,0.078125z M77.787890625,66.54296875l0.078125-0.078125q-0.078125,0.0390625-0.078125,0.078125q0.078125-0.05859375,0.2734375-0.185546875t0.283203125-0.1953125t0.224609375-0.1953125t0.234375-0.263671875q-0.5078125,0.4296875-0.72265625,0.56640625q-0.01953125,0.01953125-0.107421875,0.068359375l-0.17578125,0.09765625t-0.087890625,0.068359375q0,0.0390625,0.078125,0.0390625z M80.600390625,64.3359375q-0.05859375,0.13671875-1.0546875,0.80078125l0.29296875,0q0.05859375,0,0.390625-0.234375q0.234375-0.1953125,0.37109375-0.56640625z M77.787890625,67.3828125l0.1171875-0.1171875l-0.15625,0.078125z"/></svg>
